<svg xmlns="http://www.w3.org/2000/svg" xmlns:xlink="http://www.w3.org/1999/xlink" viewBox="0 0 1905.4 1373.57"><defs><style>.cls-1{fill:url(#Новый_образец_градиентной_залив);}.cls-2{fill:#fff;}.cls-3{fill:url(#Новый_образец_градиентной_залив-2);}.cls-4{fill:url(#Новый_образец_градиентной_залив-3);}.cls-5{fill:url(#Новый_образец_градиентной_залив-4);}.cls-6{fill:url(#Безымянный_градиент_9);}.cls-7{fill:#fe7302;}.cls-8{fill:#e09e7f;}.cls-9{fill:#363438;}.cls-10{fill:#eea987;}.cls-11{fill:#665249;}.cls-12{fill:#2e2626;}.cls-13{fill:#2f6b8c;}.cls-14{fill:url(#Безымянный_градиент_9-3);}.cls-15{fill:#eea886;}.cls-16{fill:#a77860;}.cls-17{fill:#edb14f;}.cls-18{fill:#eddad3;}.cls-19{fill:#cf8c6c;}.cls-20{fill:url(#Безымянный_градиент_9-4);}.cls-21{fill:#443c7d;}.cls-22{fill:url(#Безымянный_градиент_9-5);}.cls-23{fill:#dedede;}.cls-24{fill:url(#Безымянный_градиент_9-6);}.cls-25{fill:#db9c7c;}.cls-26{fill:url(#Новый_образец_градиентной_залив-5);}.cls-27{fill:#606060;}.cls-28{fill:url(#Новый_образец_градиентной_залив-6);}.cls-29{fill:url(#Новый_образец_градиентной_залив-7);}.cls-30{fill:url(#Новый_образец_градиентной_залив-8);}.cls-31{fill:#b59233;}.cls-32{fill:#5e5853;}.cls-33{fill:#91887f;}.cls-34{fill:#6e6760;}.cls-35{fill:#807066;}</style><linearGradient id="Новый_образец_градиентной_залив" x1="1634.42" y1="1108.06" x2="1799.87" y2="1108.06" gradientUnits="userSpaceOnUse"><stop offset="0" stop-color="#87ba0b"/><stop offset="1" stop-color="#dcf0ad"/></linearGradient><linearGradient id="Новый_образец_градиентной_залив-2" x1="1755.79" y1="1200.38" x2="1905.4" y2="1200.38" xlink:href="#Новый_образец_градиентной_залив"/><linearGradient id="Новый_образец_градиентной_залив-3" x1="1768.58" y1="1222.14" x2="1880.88" y2="1222.14" xlink:href="#Новый_образец_градиентной_залив"/><linearGradient id="Новый_образец_градиентной_залив-4" x1="1728.02" y1="1131.77" x2="1858.81" y2="1131.77" xlink:href="#Новый_образец_градиентной_залив"/><linearGradient id="Безымянный_градиент_9" x1="1698.01" y1="1319.36" x2="1818.69" y2="1319.36" gradientUnits="userSpaceOnUse"><stop offset="0" stop-color="#fe7302"/><stop offset="1" stop-color="#ffd255"/></linearGradient><linearGradient id="Безымянный_градиент_9-3" x1="1234.21" y1="972.18" x2="1384.27" y2="972.18" xlink:href="#Безымянный_градиент_9"/><linearGradient id="Безымянный_градиент_9-4" x1="462.87" y1="1026.56" x2="589.94" y2="1026.56" xlink:href="#Безымянный_градиент_9"/><linearGradient id="Безымянный_градиент_9-5" x1="386.25" y1="1063.42" x2="515.3" y2="1063.42" xlink:href="#Безымянный_градиент_9"/><linearGradient id="Безымянный_градиент_9-6" x1="384.67" y1="1017.4" x2="493.21" y2="1017.4" xlink:href="#Безымянный_градиент_9"/><linearGradient id="Новый_образец_градиентной_залив-5" x1="102.04" y1="159.48" x2="172.91" y2="159.48" xlink:href="#Новый_образец_градиентной_залив"/><linearGradient id="Новый_образец_градиентной_залив-6" x1="140.94" y1="151.88" x2="264.67" y2="151.88" xlink:href="#Новый_образец_градиентной_залив"/><linearGradient id="Новый_образец_градиентной_залив-7" x1="128.83" y1="220.49" x2="246.17" y2="220.49" xlink:href="#Новый_образец_градиентной_залив"/><linearGradient id="Новый_образец_градиентной_залив-8" x1="183.48" y1="161.39" x2="269.92" y2="161.39" xlink:href="#Новый_образец_градиентной_залив"/></defs><title>404</title><g id="Слой_2" data-name="Слой 2"><g id="Слой_1-2" data-name="Слой 1"><path class="cls-1" d="M1648.87,889.43c14.27-6.82,28.46,38.59,28.46,38.59,24.25,32,58.13-10.58,54.82,37.31-5.8,83.81,96.47,26.36,49.29,113.86s41.66,49.48,12.34,120,8.68,154.71-35.43,120.13c0,0-38.85-85.19-78.91-111.54s24-57.63,11.47-93.42c-18.21-52-62.07-50-30.44-105.83S1600.38,912.63,1648.87,889.43Z"/><path class="cls-2" d="M1772.32,1287.3c-19.12-13.45-41.5-107.17-42.84-163-.68-28.59-9.14-40.51-16.59-51-7.13-10-13.28-18.72-9.7-38.65,6.85-38.07-11.17-54.51-11.35-54.67l2.09-2.38c.8.7,19.57,17.65,12.38,57.61-3.35,18.62,2.17,26.4,9.17,36.26,7.34,10.34,16.47,23.21,17.18,52.77,1.43,59.91,24.31,148.4,41.5,160.48Z"/><path class="cls-3" d="M1779.48,1294.25a40.86,40.86,0,0,1-8.08-.88c-7.37-1.49-12.2-5.38-14.36-11.56-5.16-14.74,6.79-38.69,16.48-50.24.16-.19,16.39-20,14.66-47.51-.29-4.61-.77-8.87-1.19-12.63-1.22-10.88-2.1-18.74,2.57-24,4.12-4.63,12.07-6.63,26.58-6.7,25.45-.12,35.51-10.66,43.6-19.12,3.43-3.6,6.68-7,10.62-9.14h0c12.68-6.92,26.12-7.94,31.94-2.42,2.77,2.62,5.1,7.76.52,17.34-4.19,8.76-9.62,14.3-14,18.76-5.87,6-9.75,10-7.73,17.84.47,1.85,1,3.72,1.57,5.6,3.92,13.42,8.37,28.63-14.6,39-4.87,2.19-9.31,3.93-13.23,5.47-16,6.29-25.71,10.09-36.63,33.15-2.11,4.46-4,8.69-5.79,12.79C1803.8,1279.48,1797.28,1294.24,1779.48,1294.25Zm92.38-179c-3.51,1.92-6.45,5-9.85,8.55-8.5,8.9-19.08,20-45.87,20.1-13.34.06-20.82,1.8-24.23,5.64-3.73,4.2-2.92,11.47-1.79,21.53.43,3.8.91,8.1,1.2,12.79,1.81,28.79-14.68,48.9-15.39,49.74-9.6,11.43-20.47,34.17-15.92,47.16,1.77,5.05,5.8,8.25,12,9.5,21.63,4.37,27.6-9.16,37.49-31.58,1.81-4.11,3.69-8.36,5.82-12.87,11.46-24.19,22.15-28.39,38.34-34.74,3.88-1.52,8.29-3.25,13.09-5.41,20.45-9.19,16.76-21.81,12.86-35.18-.56-1.91-1.12-3.82-1.6-5.7-2.46-9.62,2.39-14.57,8.54-20.84,4.42-4.51,9.43-9.62,13.39-17.91,2.08-4.34,3.79-10.24.16-13.68-4.78-4.53-16.93-3.28-28.25,2.9Z"/><path class="cls-4" d="M1771.74,1312.5l-3.16-.17c.16-3,4.14-72.91,32.22-93.38,30.81-22.46,40.52-46.59,45.15-62.79,5.45-19.09,33.2-24.19,34.38-24.4l.55,3.11c-.27,0-27,5-31.89,22.15-4.75,16.65-14.73,41.45-46.33,64.48C1775.78,1241.1,1771.77,1311.79,1771.74,1312.5Z"/><path class="cls-5" d="M1835.94,960c-20-6.84-15.81,31.63-24.25,60.09s-93.83,12.42-58,83.7-45.33,23.84-21.09,86,2.11,128.72,28.46,111.8,14.81-95.25,42.22-104.55,31.88-20.16,4.74-45.46,71.11-50.42,46.87-101.51S1859,967.92,1835.94,960Z"/><path class="cls-2" d="M1773.32,1298.66c-2.51-10.65-23.95-104.35-3.95-115.68,17.63-10,17.2-48.81,14.44-85.48-2.43-32.46,39.25-47.63,41-48.26l1.06,3c-.41.15-41.18,15-38.93,45,2.82,37.66,3.13,77.61-16,88.47-15.19,8.6-1.21,83.91,5.46,112.2Z"/><polygon class="cls-6" points="1818.69 1265.3 1790.2 1373.41 1726.51 1373.41 1698.01 1265.3 1818.69 1265.3"/><path class="cls-6" d="M1818.69,1265.3S1756,1277.08,1756,1373.42h-29.45L1698,1265.3Z"/><polygon class="cls-7" points="1166.55 1123.78 1421.94 1123.78 1341.45 1370.96 1348.97 1373.41 1432.84 1115.86 1160.8 1115.86 1077.73 1370.96 1085.26 1373.41 1166.55 1123.78"/><polygon class="cls-7" points="1253.47 1370.96 1172.98 1123.78 1428.37 1123.78 1509.65 1373.41 1517.18 1370.96 1434.11 1115.86 1162.08 1115.86 1245.94 1373.41 1253.47 1370.96"/><rect class="cls-7" x="1142.79" y="1193.7" width="312.58" height="7.92"/><rect class="cls-7" x="1110.59" y="1279.65" width="373.98" height="7.92"/><path class="cls-8" d="M1433,633.19s1.81-6.19-1-8.63c-2.35-2.07-3.88-6.44-4.36-7.79-.64-1.8-4.65-6.59-2.39-7.42s7,7.58,8.34,9.15,2.87-7.54,4.45-9,16.52,1.93,14.75,8.05-7.7,11.5-7.79,12.64a39,39,0,0,1-1.11,4.51Z"/><path class="cls-8" d="M1437.34,610.86s6.66-18.39,8.13-19.25,2.44-.43,1.89,1.31-5.91,18-5.91,18S1453,590.44,1454,589.48c.62-.56,2.55.14,2.34,1.1s-10.48,21.88-10.48,21.88,10.8-19.07,11.92-19.61a1.51,1.51,0,0,1,1.89,2.08c-.7,1.47-9.73,19.74-9.73,19.74s8.74-13.39,10-13.29c.75.06,2.45.59.08,4s-7.1,12-7.1,12Z"/><path class="cls-8" d="M1176.35,800.25s-5.9,2.6-8.68.18c-2.36-2.06-6.89-3-8.29-3.3-1.87-.4-7.14-3.75-7.67-1.4s8.43,5.94,10.16,7.07-7.1,3.83-8.32,5.59,4.08,16.12,9.92,13.57,10.4-9.14,11.51-9.38a38.84,38.84,0,0,0,4.32-1.69Z"/><path class="cls-8" d="M1154.78,807.48s-17.36,9-18,10.57-.11,2.48,1.55,1.71,17-8.22,17-8.22-18.76,14.11-19.58,15.28c-.48.68.47,2.51,1.4,2.18s20.32-13.25,20.32-13.25S1140,829,1139.59,830.13a1.51,1.51,0,0,0,2.31,1.6c1.36-.89,18.29-12.23,18.29-12.23s-12.13,10.41-11.87,11.61c.16.73.9,2.35,3.95-.44s10.92-8.6,10.92-8.6Z"/><path class="cls-9" d="M1170.13,800.56l9.3,11.46s59.82-24.72,69-33.3c0,0,2.42-.93,14.8-10.75h0c2.65-2.1,5.23-4.09,7.61-5.83l1.61-1.44h0l16.52-14.75s30-15.93,17.78-33.14c0,0-5.09-4.6-12.9-.88s-19.11,13.46-21.78,16-20,17.35-20.95,18.29c-3.46,3.51-15.25,14-21.33,18.59C1219.06,772.91,1170.13,800.56,1170.13,800.56Z"/><path class="cls-10" d="M1341.22,678.91v0a71.48,71.48,0,0,1-8.13,13.42c-10.58,13.57-35.25,13.91-35.62-23.36a57.61,57.61,0,0,1,2.23-17.42c5.05-16.54,16.92-19.29,16.92-19.29,8.77-.48,24.11,1.69,29.23,13.1C1349.46,653.49,1346.84,666.93,1341.22,678.91Z"/><path class="cls-11" d="M1341.22,678.91v0s-1.26.34-5.82-8.86c-.91-1.84-1.62-.53-2-1.34l-7.26-2.83s7.18-12-2.21-15.34c-9.57-3.4-24.22,1-24.22,1,3.13-29.6,16.92-19.29,16.92-19.29,8.77-.48,27.52,0,32.63,11.46C1352.87,651.85,1346.84,666.93,1341.22,678.91Z"/><path class="cls-10" d="M1331.9,663.15c.54-2.49,5.46-4.64,7.55.72s-4.91,11-6.75,9.86S1331,667.27,1331.9,663.15Z"/><path class="cls-12" d="M1237.54,1096.65s-10.18,8.31-18.73,10.17-13,6.23-13.11,11.31,24.63,8.43,34.42,3.31c14.62-7.64,16.1-5.34,17.72-9.16s.32-13.93.42-15.14C1258.4,1095.63,1237.54,1096.65,1237.54,1096.65Z"/><path class="cls-12" d="M1238.24,1093.88a34.72,34.72,0,0,0-.95,4.24c.17.09,19.29,2.23,18.71-1.1-.47-2.7-1.14-5.63-1.14-5.63Z"/><path class="cls-12" d="M1359.17,1103.31s-6.33,9.59-14.37,11.51-10.85,4.92-11.24,9.7,18.68,11,32.08,2.64c8.8-5.52,12.09-5.21,13.86-8.71s.43-13.39.61-14.52C1380.33,1102.52,1359.17,1103.31,1359.17,1103.31Z"/><path class="cls-13" d="M1361.3,1099.82a36.71,36.71,0,0,0-.25,4.13c.15.09,17.8,3.22,17.7,0a24.59,24.59,0,0,0-1.12-5.67Z"/><path class="cls-14" d="M1288.41,856.34s-24,59.51-30.89,79.72c-9.07,26.59-14.07,50-15.21,62.76-1.44,16-7.06,91.69-8.07,96.38s26.93,3.12,26.93,3.12,15.71-95.4,20-112.48c4-15.9,41.71-88,45.34-83.68s15.71,78.17,18.41,90.71,9.91,111.25,9.91,111.25,24.51,3.93,29.45,0c0,0-3.87-88-5.58-111.52-.65-9,5.67-107.25-9.48-146.89C1361.2,824.73,1288.41,856.34,1288.41,856.34Z"/><path class="cls-9" d="M1314.3,706.91s-20.75,4.26-23.45,6.65c-2.92,2.54-8.76,28.22-9.07,35.14s1.48,35.46,4.4,46.23-2.59,55.6-4.43,70.53c0,0,36,16.35,96.83,3.61,0,0-10.69-46.41-8.89-61.17,2.3-18.91,8.45-60.32,8.45-60.32s5.58-39.45.43-38.48c-16.87,3.18-38.65-2.2-38.65-2.2Z"/><path class="cls-15" d="M1309.65,711.72s6.37,4.79,27.67-4.6a58.8,58.8,0,0,1,2.06-25.24c4.18-13.64-27.47,14.22-27.47,14.22.35.24.41,1.6.21,3.51,0,.12,0,.25,0,.37a37.26,37.26,0,0,1-.85,4.65c0,.21-.1.41-.16.62C1309.88,709.8,1309.65,707.73,1309.65,711.72Z"/><path class="cls-16" d="M1311.23,704.62h0c15.26,2,23.59-14.48,23.83-15-10.45,15.23-23,10.28-23,10.28h0A37.6,37.6,0,0,1,1311.23,704.62Z"/><path class="cls-15" d="M1309.74,707.89s-4.88,7.26,1.92,8.5,20.69-.27,28.26-9.48C1339.92,706.91,1320,703.08,1309.74,707.89Z"/><path class="cls-9" d="M1344.84,746c-2.16-4.46,3.3-16.09,12.56-24.22a68,68,0,0,1,19-11.85c3.81-1.43,29.86-9.82,31.12-13.08,1.59-4.13,8.51-24.39,9.07-26.16,1.12-3.53,14.12-43.62,14.12-43.62l16.2,3.71s-12.08,58-13.58,65.39c-1,4.89-1.83,13.54-12.73,20.5-11.08,7.07-35.37,25-37.81,26S1354.46,765.86,1344.84,746Z"/><path class="cls-17" d="M525.09,1010.37s-29.6,86.35-31.49,96.1c-2.07,10.66-25.22,87.41-25.22,87.41s-48.58-47.57-63.76-59.64S504.16,1007.84,525.09,1010.37Z"/><path class="cls-18" d="M540.48,1345.08s9.81-4,13.84-5.69,4.63-5.45,6.33-3,10.11,10.16,14.65,11.14,34,5.44,34.59,12.12-13.16,9-32.56,10-19.86,6-32.79,2.72C540.51,1371.43,540.48,1345.08,540.48,1345.08Z"/><path class="cls-18" d="M254.62,1236.28s4.86,9,6.93,12.76,5.75,3.91,3.52,5.81-8.78,10.84-9.24,15.33-1.72,33.47-8.12,34.72-10.1-11.79-13.11-30.44-7.89-18.59-6-31.44C229.12,1239,254.62,1236.28,254.62,1236.28Z"/><path class="cls-15" d="M580,1030.18s4.71-8.6,5.47-9.89,4.53-3.1,9-4.79,11.37-2,12-1.48a4.21,4.21,0,0,1,2.29,2.68,8.09,8.09,0,0,1,.19,4.1,4.93,4.93,0,0,1,1.21,4.6,4.29,4.29,0,0,1,.42,4.76s1.73,2,.54,3.92a32.61,32.61,0,0,0-5,2.89c-1.2,1.08-9.32,4.31-17.58,6.22C588.61,1043.19,579.58,1045.66,580,1030.18Z"/><path class="cls-19" d="M593.48,1026.78s-.49,4.9-1.32,6.21,9.39,5.64,9.39,5.64S599.42,1027.53,593.48,1026.78Z"/><path class="cls-9" d="M422.22,1089.61c-8,6-18.81,29.74-26.33,48.25-.17.33-18.08,36.58-24.89,46.75-10.23,15.27-23,13.91-44.91,22.25-17.83,6.77-74.21,27.14-74.21,27.14l13.2,26.27s85.35-19.57,112.67-30.89c13.85-5.74,59.6-44.33,59.61-44.34h0c5.7-4.67,10.85-9.22,15.25-13.26h0c3.49-3.21,6.51-6.11,8.94-8.5,4.36-4.29,6.84-7,6.84-7S429,1084.53,422.22,1089.61Z"/><path class="cls-20" d="M491.61,976.07l24.18,61.12s1.2,8.47,18.86,2.75c18-5.84,46.91-13.54,46.91-13.54s10.21,21.46,8.08,22.7c-6.16,3.6-55.88,22.12-76.6,27.77-16.44,4.48-50.17-83.73-50.17-83.73Z"/><path class="cls-9" d="M534.4,1216.62c.36-10.21-11.13-39-19.78-56.5h0c-13.58-27.92-27.38-57-27.38-57s-78.82,0-78.68,8.4c.26,16,38.84,52,44.94,59.07l2.59,2.82s14.6,14,20.54,24.79c8.67,15.71,13,26.6,18.67,47.12,5.09,18.38,40.15,104.88,40.15,104.88L568.09,1339S533.83,1232.47,534.4,1216.62Z"/><path class="cls-21" d="M404.63,1106.48s53.8-57.38,49.17-94.47a72.27,72.27,0,0,1-.57-8.89,71.48,71.48,0,0,1,.85-11.18c3.37-21.72,16.48-39.69,32.79-48.58,0,0-.16-4.74,22.49,17,1.25,1.2,13.87,23.4,15.59,47.55,2.1,29.54-6.36,35.47-16.79,57.94-7.62,16.42-18.59,30.72-20.91,37.27C487.23,1103.13,481.19,1112.8,404.63,1106.48Z"/><path class="cls-15" d="M510.77,941.48s-.27,1.2-.66,3.07c-.29,1.38-.64,3.11-1,5-1,5.09-1.92,11.25-1.66,14.15.49,5.43-20-19.41-20-19.41a262.61,262.61,0,0,0,4.88-36.85C493.4,887.77,510.77,941.48,510.77,941.48Z"/><path class="cls-16" d="M510.14,944.41c-.29,1.38-.67,3.25-1,5.13a97.51,97.51,0,0,1-13.8-16.78C498.34,936.84,510.14,944.41,510.14,944.41Z"/><path class="cls-22" d="M503.33,1031.83a14.39,14.39,0,0,1-.62,1.51c-.75,1.72-2.7,3.92-4.58,7.16-16,27.52-33.12,65.15-39.92,91.47-7.76,30-11.86,53.72-11.86,53.72l-60.09-54.86s20.87-44.71,42.75-71.37c24.23-29.52,17.35-96.63,17.35-96.63l34.57-16,5.15-5.64L505,955.32,515.3,962S510.27,1009.39,503.33,1031.83Z"/><rect class="cls-23" x="418.19" y="675.37" width="10.74" height="631.63" transform="translate(1387.04 507.9) rotate(86.5)"/><rect class="cls-23" x="424.48" y="778.27" width="10.74" height="631.63" transform="translate(1495.66 598.24) rotate(86.5)"/><rect class="cls-23" x="680.04" y="971.46" width="11.63" height="108.59" transform="translate(-61.28 43.74) rotate(-3.5)"/><rect class="cls-23" x="595.07" y="976.66" width="11.63" height="108.59" transform="translate(-61.83 38.62) rotate(-3.5)"/><rect class="cls-23" x="510.1" y="981.85" width="11.63" height="108.59" transform="translate(-62.32 33.44) rotate(-3.5)"/><rect class="cls-23" x="425.13" y="987.05" width="11.63" height="108.59" transform="translate(-62.79 28.26) rotate(-3.5)"/><rect class="cls-23" x="340.16" y="992.25" width="11.63" height="108.59" transform="translate(-63.27 23.08) rotate(-3.5)"/><rect class="cls-23" x="255.19" y="997.44" width="11.63" height="108.59" transform="translate(-63.74 17.9) rotate(-3.5)"/><rect class="cls-23" x="170.22" y="1002.64" width="11.63" height="108.59" transform="translate(-64.22 12.72) rotate(-3.5)"/><path class="cls-15" d="M426.31,1107.45a11.23,11.23,0,0,1-2.34-2.72s-.7-2.08-1.29-3.52a10.46,10.46,0,0,0-.5-1.1,20.56,20.56,0,0,1-2.87-5.91c-.71-2.83-.64-15.84-.64-15.84l7-2,6.33-2.77s12.68,12.61,13.65,15.18a7,7,0,0,1,.24.74c.61,2.25.12,4.18.3,5.39.06.45.42,4.94-.55,5.87a4.4,4.4,0,0,1-4,1.38s-2.74,2.43-5.2,2.53a6.53,6.53,0,0,1-5.55,1.57S428.12,1108.39,426.31,1107.45Z"/><path class="cls-24" d="M484.42,982.12s13.71-.87,6.89-21.65c-9.2-28-36.53.35-94.26,24,0,0-16.18,6.54-11.54,23.82s25.12,72.18,26.46,77.7l23.13-12.72s-10.53-27.25-13.35-41.51-4.81-27.52-4.81-27.52Z"/><path class="cls-25" d="M605.33,1014.41s-11.33,4.58-10.82,6.49a3.11,3.11,0,0,0,1.86,2.31l-3.81,4s-1,4.07,3.71,4c0,0-1.35,3.7,3.21,3.09,0,0,.2,2.84,2.36,2.93s9.33-3.16,9.33-3.16,1.56-1.5-.18-4.06a4.1,4.1,0,0,0-.5-4.64,4.72,4.72,0,0,0-1.22-4.64s1.32-5-2.75-6.72C606.53,1014,605.8,1014.22,605.33,1014.41Z"/><path class="cls-15" d="M585.78,1020.1s8.35.75,12.73,3.16c1,.55,1.85,1.25,1.72,2.38s-1.93,2.36-5.57,2.22a30.64,30.64,0,0,0-8.4,1.34S582.58,1028,585.78,1020.1Z"/><path class="cls-15" d="M531.22,897.61s6.37,11.87,3.19,13.71c-2.62,1.52,3,13.17,3.78,15.07s-4.75,3.27-5.92,4.49-4.66,16.27-9.18,16.71-24.88-6.69-30.41-12.47-10-31.84-6.3-42.82S520,876.87,531.22,897.61Z"/><path class="cls-9" d="M532.56,900s2.42-8.62-9.42-18.15-29.89,1.94-32.15,3.69c-2,1.56-14,11.54-9.45,26.13,7.67,24.37,7.59,23.36,7.59,23.36s3.32-14.71,7.76-15.73c4.82-1.11,11.42-1.88,11.42-1.88s-4.16-11.12,2.38-12.68S525.95,897.58,532.56,900Z"/><path class="cls-15" d="M505.49,918.27c-.32-1.3-1.8-7.12-6.36-6.26s-3,8,.48,12.21S507.3,925.53,505.49,918.27Z"/><path class="cls-9" d="M490,886.37s-15.81,3.23-13.22,15.18,9.59,25.38,10.59,28.18S490,886.37,490,886.37Z"/><path class="cls-9" d="M104.23,406.61A70.77,70.77,0,0,0,93.4,419.31c-5.13,7.69-18.74,8.1-19.32,18.6s18.5,10.82,28.52,7.4,11.54-13.67,17.59-16.23,9.21-4.64,8.74-9.64-3.82-13.13-3.82-13.13a41.37,41.37,0,0,1-6,1.45A49.54,49.54,0,0,1,104.23,406.61Z"/><path class="cls-26" d="M172.91,122.21S169.07,145,166,160.13h0c-1.26,6.12-2.39,11-3.09,12.48-.88,1.92-8.09,9.66-16.92,18.74-15.48,15.94-35.93,36-35.93,36l-8-15.18s18.17-21.3,30.48-35.51c5.7-6.58,10.15-11.63,11-12.36,2.57-2.3,5.56-25,9.76-43.7s12.62-29,12.62-29Z"/><path class="cls-15" d="M146,191.36c-15.48,15.94-35.93,36-35.93,36l-8-15.18s18.17-21.3,30.48-35.51C136.3,178.53,143.23,182.95,146,191.36Z"/><path class="cls-9" d="M245.24,400.36s5.26,5.81,8.37,9.34,15,9.82,15.08,20.29c.07,11.35-8.78,10.36-16.66,9.94s-14.28-5.86-17.59-12.28-12.14-8.11-12.76-13.3,4.09-14.51,4.09-14.51Z"/><path class="cls-27" d="M226.78,390.18l-1,9.66s16.44,7.16,19.48.52l-.71-8.6Z"/><path class="cls-27" d="M105.13,399.62l-.9,7a34.47,34.47,0,0,0,20.88-.31l.22-6.22Z"/><path class="cls-28" d="M246.17,224.28c.57,2-105.24,0-105.24,0s29.27-21.3,31.17-27-7.45-39.84-8.67-51c-1-8.89-3.42-48.67,2.44-54.75,6.13-6.35,28.19-13,28.19-13l32.16,1.19a50.5,50.5,0,0,1,9.1,2.87c3.79,1.76,25.49,9.49,29,20.33s-21.65,45.69-21.65,45.69,0,1.57-.12,4.13h0c-.1,3.42-.24,8.63-.37,14.27-.17,7.31-.32,15.35-.32,21.23C241.87,202.12,245.6,222.25,246.17,224.28Z"/><path class="cls-9" d="M246.17,224.28s14.39,21.14,14.6,35.57-5.33,54.45-5.74,62.37-7.86,74-7.86,74-5.76,5.35-23-1.36c0,0-3.81-62.65-4.22-69.35s-.41-37.6-4.27-42.07-27.24-18.5-30.28-21.14-56.16,10-61.73,11.48c-14.41,3.74-7.84,28.81-4.65,40.05,5.33,18.81,10,86.72,10,86.72s-10.26,4.37-27.46.68c0,0-33.76-122.63-34.84-134.83s-1.62-32.3,81.58-47.59Z"/><path class="cls-15" d="M202.88,8.71S175,2.41,181.34,37.54s13.09,37.89,29.93,30.62,15.33-29.78,16.18-40.82S211.78,9.09,202.88,8.71Z"/><path class="cls-15" d="M195.49,87.6s12.36,13.11,31.9,1.2c0,0-4.37-28.41-2.07-42.24S199.83,68,199.83,68c.37.19.61,1.51.66,3.39A37.89,37.89,0,0,1,200.2,77C199.63,81.61,198.2,86.47,195.49,87.6Z"/><path class="cls-15" d="M217.85,32.88c.37-3.1,6.49-4.24,7,.41s-2.78,12.8-5.11,12S217.34,37.16,217.85,32.88Z"/><path class="cls-9" d="M226.09,45.37S225.37,34.3,221.33,34s-4.67,4.11-4.67,4.11l-4.08.77s1.29-9.7-2.75-11.4-26.16,5.34-29.4,2.49-1.72-22.53,4.15-25.22,22-8.73,33.91-.7c0,0,9.24-1.05,10.62,6.41S228.61,39.83,226.09,45.37Z"/><path class="cls-16" d="M200.2,77c20.16-6.22,21.68-18.35,21.7-18.54-6.64,11.41-21.41,12.91-21.41,12.91A37.89,37.89,0,0,1,200.2,77Z"/><path class="cls-15" d="M235.65,82.8S220.88,112.18,197,110.29s-4.06-31.44-3-31.71S218.51,72.48,235.65,82.8Z"/><path class="cls-29" d="M128.83,222.79s73.07,9,117.34,1.49l-84.59-10.57S161.08,215.87,128.83,222.79Z"/><path class="cls-15" d="M183.48,210.38,178,213.14s1.24,8.65,4.22,11.27l6.11-1.56S187.1,213.36,183.48,210.38Z"/><path class="cls-30" d="M268,192.67c-1.09,1.26-15.45,7-31.68,13.29h0c-22.17,8.54-47.18,16.62-47.18,16.62l-5.69-12.2s26.19-14.23,43.89-24.21c8.36-4.71,14.82-8.48,15.74-9.35,2.85-2.71,3.58-7.06,1.49-14.63s-6.91-42.41-7.45-46.48,1.35-14.91,11.52-15.45S264,102.59,264,102.59s2.55,1.06,4.45,25.72S270.62,189.69,268,192.67Z"/><path class="cls-31" d="M242.56,152.8h0c-.1,3.42-.24,8.63-.37,14.27-9.92-24.31-4.19-43.72-4.09-44C237,129.63,242.48,152.48,242.56,152.8Z"/><path class="cls-31" d="M166,160.13h0c-1.26,6.12-2.39,11-3.09,12.48-3.39-16.4-.34-37.39-.34-37.39C163,145.26,166,160.13,166,160.13Z"/><path class="cls-15" d="M236.36,206h0c-22.17,8.54-48,16.88-48,16.88l-4.89-12.47s26.19-14.23,43.89-24.21C227.37,186.17,233.81,189.31,236.36,206Z"/><polygon class="cls-32" points="181.91 223.57 78.05 222.04 130.49 248.67 181.91 223.57"/><polygon class="cls-33" points="130.49 248.67 181.91 228.75 181.91 223.57 126.42 243.59 130.49 248.67"/><path class="cls-15" d="M179.22,213.33s-6.49-1-11-2.05c-3.47-.81-12.1.31-14.3,2.53s-9.19,17.74-10.51,18.69.68,3.14,3,2c0,0,2.13,6.79,7.39,4.25s8.83-8.09,11.59-9.07,18.8-5.91,18.8-5.91S183.35,211.68,179.22,213.33Z"/><path class="cls-15" d="M155.53,212.79a45.28,45.28,0,0,0-5.25,2.91c-1.09.9-5.5,4.2-6.57,5s1.61,3,9.49-.43S155.53,212.79,155.53,212.79Z"/><polygon class="cls-34" points="130.49 248.67 99.59 164.32 0 165.95 29.44 243.68 130.49 248.67"/><ellipse class="cls-35" cx="60.17" cy="205.41" rx="8.45" ry="12.3" transform="translate(-85.54 48.62) rotate(-26.58)"/></g></g></svg>