<svg xmlns="http://www.w3.org/2000/svg" xmlns:xlink="http://www.w3.org/1999/xlink" viewBox="0 0 1791.45 979.8"><defs><style>.cls-1{isolation:isolate;}.cls-2{fill:url(#Безымянный_градиент_9);}.cls-3{fill:url(#Безымянный_градиент_9-2);}.cls-4{fill:#eff7fe;}.cls-5{fill:url(#Безымянный_градиент_13);}.cls-6{fill:url(#Безымянный_градиент_13-2);}.cls-7{fill:url(#Безымянный_градиент_9-3);}.cls-8{fill:url(#Безымянный_градиент_9-4);}.cls-9{fill:url(#Безымянный_градиент_13-3);}.cls-10{fill:url(#Безымянный_градиент_13-4);}.cls-11{fill:url(#Безымянный_градиент_13-5);}.cls-12{fill:url(#Безымянный_градиент_13-6);}.cls-13,.cls-27{fill:#fff;}.cls-13{mix-blend-mode:hard-light;}.cls-14{fill:#e8e8e8;}.cls-15{fill:#c1dbd1;}.cls-16{fill:#eea886;}.cls-17{fill:#152b3d;}.cls-18{fill:#363438;}.cls-19{fill:#87ba0b;}.cls-20{fill:#212023;}.cls-21{fill:#e55353;}.cls-22{fill:#353a3d;}.cls-23{fill:url(#Безымянный_градиент_9-5);}.cls-24{fill:url(#Безымянный_градиент_9-6);}.cls-25{fill:url(#Безымянный_градиент_9-7);}.cls-26{fill:url(#Безымянный_градиент_9-8);}.cls-28{fill:#ebe2d8;}.cls-29{fill:#a77860;}.cls-30{fill:#2b4724;}.cls-31{fill:#5a954b;}.cls-32{fill:#eddad3;}.cls-33{fill:#424773;}.cls-34{fill:#dbdbdb;}.cls-35{fill:#e6e6e6;}.cls-36{fill:#eea987;}.cls-37{fill:url(#Безымянный_градиент_9-9);}.cls-38{fill:url(#Безымянный_градиент_9-10);}</style><linearGradient id="Безымянный_градиент_9" x1="317.96" y1="932.95" x2="317.96" y2="783.49" gradientUnits="userSpaceOnUse"><stop offset="0" stop-color="#fe7302"/><stop offset="1" stop-color="#ffd255"/></linearGradient><linearGradient id="Безымянный_градиент_9-2" x1="279.99" y1="875.64" x2="700.52" y2="875.64" xlink:href="#Безымянный_градиент_9"/><linearGradient id="Безымянный_градиент_13" x1="312.69" y1="595.95" x2="312.69" y2="802.85" gradientUnits="userSpaceOnUse"><stop offset="0" stop-color="#6f368e"/><stop offset="1" stop-color="#ad8ac2"/></linearGradient><linearGradient id="Безымянный_градиент_13-2" x1="373.52" y1="724.92" x2="735.69" y2="724.92" xlink:href="#Безымянный_градиент_13"/><linearGradient id="Безымянный_градиент_9-3" x1="455.08" y1="605.88" x2="455.08" y2="451.19" gradientTransform="translate(910.16 1089) rotate(-180)" xlink:href="#Безымянный_градиент_9"/><linearGradient id="Безымянный_градиент_9-4" x1="123.04" y1="544.51" x2="488.03" y2="544.51" xlink:href="#Безымянный_градиент_9"/><linearGradient id="Безымянный_градиент_13-3" x1="278.04" y1="189.98" x2="278.04" y2="363.76" xlink:href="#Безымянный_градиент_13"/><linearGradient id="Безымянный_градиент_13-4" x1="243.13" y1="345.76" x2="629.8" y2="345.76" xlink:href="#Безымянный_градиент_13"/><linearGradient id="Безымянный_градиент_13-5" x1="409.21" y1="104.29" x2="409.21" y2="243.29" xlink:href="#Безымянный_градиент_13"/><linearGradient id="Безымянный_градиент_13-6" x1="374.29" y1="171.17" x2="760.96" y2="171.17" xlink:href="#Безымянный_градиент_13"/><linearGradient id="Безымянный_градиент_9-5" x1="1418.05" y1="896.04" x2="1649" y2="896.04" xlink:href="#Безымянный_градиент_9"/><linearGradient id="Безымянный_градиент_9-6" x1="1363.19" y1="896.04" x2="1594.14" y2="896.04" xlink:href="#Безымянный_градиент_9"/><linearGradient id="Безымянный_градиент_9-7" x1="1403.39" y1="865.49" x2="1606.69" y2="865.49" xlink:href="#Безымянный_градиент_9"/><linearGradient id="Безымянный_градиент_9-8" x1="1384.4" y1="921.38" x2="1627.63" y2="921.38" xlink:href="#Безымянный_градиент_9"/><linearGradient id="Безымянный_градиент_9-9" x1="1031.93" y1="170.33" x2="1179" y2="170.33" xlink:href="#Безымянный_градиент_9"/><linearGradient id="Безымянный_градиент_9-10" x1="1189.99" y1="170.33" x2="1337.06" y2="170.33" xlink:href="#Безымянный_градиент_9"/></defs><title>about-img</title><g class="cls-1"><g id="Слой_2" data-name="Слой 2"><g id="Режим_изоляции" data-name="Режим изоляции"><path class="cls-2" d="M73.64,806H600.75a0,0,0,0,1,0,0V945.31a0,0,0,0,1,0,0H73.64a38.46,38.46,0,0,1-38.46-38.46V844.42A38.46,38.46,0,0,1,73.64,806Z"/><path class="cls-3" d="M691.27,820.3V931h9.24v14.34H318.45A38.46,38.46,0,0,1,280,906.86V844.42A38.46,38.46,0,0,1,318.45,806H700.52V820.3Z"/><path class="cls-4" d="M346.65,820.3H691.26a0,0,0,0,1,0,0V931a0,0,0,0,1,0,0H346.65a38.46,38.46,0,0,1-38.46-38.46V858.76A38.46,38.46,0,0,1,346.65,820.3Z"/><path class="cls-5" d="M48.33,643.88h577a0,0,0,0,1,0,0V805.95a0,0,0,0,1,0,0h-577A48.33,48.33,0,0,1,0,757.62V692.21A48.33,48.33,0,0,1,48.33,643.88Z"/><path class="cls-6" d="M727.73,660.56V789.27h8V806H421.85a48.33,48.33,0,0,1-48.33-48.33V692.21a48.33,48.33,0,0,1,48.33-48.33H735.69v16.68Z"/><path class="cls-4" d="M446.14,660.56H727.72a0,0,0,0,1,0,0V789.27a0,0,0,0,1,0,0H446.14a48.33,48.33,0,0,1-48.33-48.33V708.88A48.33,48.33,0,0,1,446.14,660.56Z"/><path class="cls-7" d="M261.94,445.15H700.52a0,0,0,0,1,0,0v198.7a0,0,0,0,1,0,0H261.94a52.3,52.3,0,0,1-52.3-52.3v-94.1A52.3,52.3,0,0,1,261.94,445.15Z" transform="translate(910.16 1089) rotate(180)"/><path class="cls-8" d="M131.07,465.61V623.4h-8v20.45H435.73a52.3,52.3,0,0,0,52.3-52.3v-94.1a52.3,52.3,0,0,0-52.3-52.3H123v20.45Z"/><path class="cls-4" d="M183.06,465.6H459.58a0,0,0,0,1,0,0V623.4a0,0,0,0,1,0,0H183.06a52,52,0,0,1-52-52V517.59a52,52,0,0,1,52-52Z" transform="translate(590.65 1089) rotate(180)"/><path class="cls-9" d="M73,246.4H538.06a0,0,0,0,1,0,0V445.1a0,0,0,0,1,0,0H73a55,55,0,0,1-55-55V301.38A55,55,0,0,1,73,246.4Z"/><path class="cls-10" d="M621.3,266.86v157.8h8.5v20.45H298.11a55,55,0,0,1-55-55V301.39a55,55,0,0,1,55-55H629.8v20.45Z"/><path class="cls-4" d="M326.74,266.85H621.29a0,0,0,0,1,0,0v157.8a0,0,0,0,1,0,0H326.74A54.75,54.75,0,0,1,272,369.9V321.61A54.75,54.75,0,0,1,326.74,266.85Z"/><path class="cls-11" d="M183.32,96H669.23a0,0,0,0,1,0,0V246.35a0,0,0,0,1,0,0H183.32a34.13,34.13,0,0,1-34.13-34.13V130.11A34.13,34.13,0,0,1,183.32,96Z"/><path class="cls-12" d="M752.46,111.46V230.88H761v15.48H408.42a34.13,34.13,0,0,1-34.13-34.13V130.11A34.13,34.13,0,0,1,408.42,96H761v15.48Z"/><path class="cls-4" d="M434.35,111.46h318.1a0,0,0,0,1,0,0V230.87a0,0,0,0,1,0,0H434.35a34.13,34.13,0,0,1-34.13-34.13V145.58A34.13,34.13,0,0,1,434.35,111.46Z"/><rect class="cls-13" x="842.19" y="148.28" width="949.26" height="657.09" rx="55.91" ry="55.91"/><rect class="cls-14" x="1312.94" y="140.95" width="7.76" height="664.49"/><rect class="cls-15" x="906.28" y="217.51" width="348.78" height="13.18"/><rect class="cls-15" x="906.28" y="265.84" width="348.78" height="13.18"/><rect class="cls-15" x="906.28" y="314.17" width="348.78" height="13.18"/><rect class="cls-15" x="906.28" y="362.49" width="348.78" height="13.18"/><rect class="cls-15" x="906.28" y="410.82" width="348.78" height="13.18"/><rect class="cls-15" x="906.28" y="459.14" width="348.78" height="13.18"/><rect class="cls-15" x="906.28" y="507.47" width="348.78" height="13.18"/><rect class="cls-15" x="906.28" y="555.79" width="348.78" height="13.18"/><rect class="cls-15" x="906.28" y="604.12" width="348.78" height="13.18"/><rect class="cls-15" x="906.28" y="652.44" width="348.78" height="13.18"/><rect class="cls-15" x="906.28" y="700.77" width="348.78" height="13.19"/><rect class="cls-15" x="1376.62" y="217.51" width="348.78" height="13.18"/><rect class="cls-15" x="1376.62" y="265.84" width="348.78" height="13.18"/><rect class="cls-15" x="1376.62" y="314.17" width="348.78" height="13.18"/><rect class="cls-15" x="1376.62" y="362.49" width="348.78" height="13.18"/><rect class="cls-15" x="1376.62" y="410.82" width="348.78" height="13.18"/><rect class="cls-15" x="1376.62" y="459.14" width="348.78" height="13.18"/><rect class="cls-15" x="1376.62" y="507.47" width="348.78" height="13.18"/><rect class="cls-15" x="1376.62" y="555.79" width="348.78" height="13.18"/><rect class="cls-15" x="1376.62" y="604.12" width="348.78" height="13.18"/><rect class="cls-15" x="1376.62" y="652.44" width="348.78" height="13.18"/><rect class="cls-15" x="1376.62" y="700.77" width="348.78" height="13.19"/><path class="cls-16" d="M1499.21,399.86s-4.74-8.3,2.78-30.53c7.27-21.5,32.44-19.55,40.44-5.78s5.3,22.33-6.48,37.89S1504.1,407,1499.21,399.86Z"/><path class="cls-16" d="M1557.68,782.4s1.25,9.13,1.4,10.5,13.86-.81,13.86-.81l1.11-10.87S1559.39,781.11,1557.68,782.4Z"/><path class="cls-17" d="M1558.93,791.74s-4.34,5.5-8.54,7.9-10.8,3.35-13.28,5.83c-1.79,1.79-6.53,9.51,10.91,9.35s25.84,1.09,27.71-1.87-2.7-21.83-2.7-21.83S1568.77,792.32,1558.93,791.74Z"/><path class="cls-16" d="M1462.82,782.4s1.25,9.13,1.4,10.5,13.86-.81,13.86-.81l1.11-10.87S1464.53,781.11,1462.82,782.4Z"/><path class="cls-17" d="M1464.08,791.74s-4.34,5.5-8.54,7.9-19.65,4.37-22.13,6.85c-1.79,1.79-4.77,9,19.76,8.33,17.43-.48,25.84,1.09,27.71-1.87s-2.7-21.83-2.7-21.83A72.31,72.31,0,0,1,1464.08,791.74Z"/><path class="cls-18" d="M1553.07,555s7,21.83,6.1,40.64,3.63,39.39,5.49,59c2.08,21.91,10.58,73.77,10.88,85.49s-1.32,49.14-1.32,49.14l-17,.41s-14.29-90.67-18-99.92-22.05-75.21-22.67-82.61S1553.07,555,1553.07,555Z"/><path class="cls-18" d="M1482.53,552.76S1472.2,610.48,1471,622s-2.06,55.72-2.67,62.91-4.11,94.16-7.4,104.85h19s19.48-63.22,19.48-93.13,12.9-65,21.22-84.77,27.38-20.2,32.5-56.82C1553.07,555,1489.46,541.15,1482.53,552.76Z"/><path class="cls-16" d="M1506.1,405.73s2.14,6.23,0,10.67,27.34,1.78,27.34,1.78-1.33-9.18,2.52-16.74S1506.1,405.73,1506.1,405.73Z"/><path class="cls-19" d="M1554.43,559.79s-10.6,10.89-72.86-1.7l.95-5.33,70.77,2.66Z"/><path class="cls-16" d="M1501.63,417.85s-10.89,1.11-14,1.7-24.05-3.75-28.35-4.19-22.61-13-23.21-14.48-11.14-28.2-11.74-34-10.28-2.79-9.45,1.19c1.55,7.45,3.55,25.52,4.64,30.76,1.18,5.66,4.35,18.47,6.12,20s18.27,14.12,34.42,19.46a137.28,137.28,0,0,1,28.3,13.18H1568s31-44.24,31.62-50.91-21.62-51-26.06-56.53-10.87,1.81-10.87,1.81S1576,385,1577.74,390.55s-15.49,30-20.23,30-16.91-1.48-22.32-1.7a37.86,37.86,0,0,1-11.11-2.59Z"/><path class="cls-19" d="M1467.34,447.4s9.74,6.48,10.63,17.59a230.38,230.38,0,0,0,6.22,34.66c1.78,6-1.56,49.55-2,52.66s61.58,10.5,71.1,3.11c0,0,2.67-40.66,3.78-52.22s6.44-39.55,8.22-43.33,23.33-34,24.22-38c0,0-11.15-17.78-19.15-18,0,0-12.71,14.89-16.85,15.56s-29.53-4-29.54-4-2.77,3.77-17.5-.67c0,0-17.55,2-20.4,2.34-3.46.44-27.48-3-27.48-3s-9.64,16.27-7.95,24.49Z"/><path class="cls-16" d="M1424.9,370.38s-2.17-10.3.44-13.26c1.49-1.68,5.08-6.14,5.4-6.79s4.17-2.86,4.17-3.93-3.77-2.37-7,.66-5.32,3.68-6.63,3.36-3.19-11.21-3.36-13.91-1.21-9.82-2.89-9.33-1.61,3.6-1.61,3.6-2-5.4-3.27-4.34-1.15,3.68-1.15,3.68-2.46-3-3.11-.82a7.64,7.64,0,0,0,0,4.17s-2.54-1.39-2.7,2,.74,13.51,2.54,17.11,8.54,13,9.35,16.7S1424.9,370.38,1424.9,370.38Z"/><path class="cls-16" d="M1564.81,352.3s-7.4-12.44-9.92-13.56-6.07-1.74-9.18-4-7.22-4.07-7-4.82,3.89-.44,7.81,1.26,5.65.88,6,0-2.09-7.16-3.28-8.64-9.63-10-8.22-11.23,6.89,3.41,7.78,4.37c0,0-4.37-9.19-2.67-9.63s4.89,2.81,4.89,2.81-.37-7.85,8.07,4.89c0,0-1.78-4.22.81-2.81s5.11,9.33,5.93,13.33,4.51,16.74,7.66,19.81S1564.81,352.3,1564.81,352.3Z"/><path class="cls-20" d="M1536,401.44s-3.9.35-12.2-2.52-8.92-17.37-10.71-15.65c-3.66,3.51-7.12,1.09-8.5-1,0,0,4-5.33,2.17-7.9a19.9,19.9,0,0,0-4.93-4.44s5.83-28.12,32.39-15.31C1565.29,369.64,1536,401.44,1536,401.44Z"/><path class="cls-19" d="M1506.1,416.4l.94-4.07s16.95-.34,26.19,1l1,4.86S1522.36,423.56,1506.1,416.4Z"/><path class="cls-16" d="M1510.28,379.71c1.54-2.56,7.23-4.28,7.9,3,.52,5.62-10.17,11.75-10.27,6.52S1509.25,381.42,1510.28,379.71Z"/><path class="cls-21" d="M1424.5,368s-6.12.15-9.08,2.83a6.1,6.1,0,0,0,.49,3,37.72,37.72,0,0,1,9.36-2.94S1425.21,368.76,1424.5,368Z"/><circle class="cls-22" cx="1419.71" cy="370.59" r="2.63" transform="translate(526.17 1534.42) rotate(-67.11)"/><polygon class="cls-23" points="1591.23 817.44 1425.14 817.44 1477.49 978.2 1472.59 979.79 1418.05 812.29 1594.97 812.29 1649 978.2 1644.1 979.79 1591.23 817.44"/><polygon class="cls-24" points="1534.71 978.2 1587.05 817.44 1420.96 817.44 1368.09 979.79 1363.19 978.2 1417.22 812.29 1594.14 812.29 1539.6 979.79 1534.71 978.2"/><rect class="cls-25" x="1403.39" y="862.91" width="203.3" height="5.15"/><rect class="cls-26" x="1384.4" y="918.81" width="243.23" height="5.15"/><path class="cls-27" d="M167.29,134.83S159.48,120.5,155,115.34s-19.2-9-17.19-15.61,21.77-3.72,27.22,2.72,22.06,8.74,22.63,11.46-5.77,17.62-9.33,20.05S167.29,134.83,167.29,134.83Z"/><path class="cls-27" d="M134.11,147s-12.72-10.08-18.84-13.05-21.2-.66-22-7.5,18.5-12.06,26.06-8.31,23.72-.74,25.32,1.53,1.7,18.46-.6,22.11S134.11,147,134.11,147Z"/><path class="cls-16" d="M162.35,173.21s5.55-38,5.3-44.55c-.07-1.88,11.42-1.18,10.89,2.44-1.17,7.88,4.14,38.39,3.21,44S161.87,176.73,162.35,173.21Z"/><path class="cls-16" d="M145,184.13s-10.4-36.86-12.83-43c-1.08-2.73,9.52-7,11-2.09,2.26,7.64,19,33.59,20.41,39.09S145.92,187.54,145,184.13Z"/><path class="cls-20" d="M152.18,209.74S141,172.07,139.28,168.06l17.62-10.89s8.16,24.07,9.31,30.08S152.18,209.74,152.18,209.74Z"/><path class="cls-20" d="M464.07,110.2s-17,4.3-25.11,17.17-15.09,27.69-30.3,34.41-15.31,24-14.12,26.72,47.92,55.2,58.11,57.23,29.29.62,27.25-12.88-22-42.53-10.82-57.18,14.06-28.14,14.06-28.14Z"/><path class="cls-16" d="M461.1,173a6.53,6.53,0,0,0-1.33-.24,9.68,9.68,0,0,0-4,.48,9,9,0,0,0-1.56.77c-4,2.38-13.61,8.85-14.91,9-1.49.18-.23-22.14-.23-22.14s5.09-9,5.74-14.95S461.1,173,461.1,173Z"/><path class="cls-20" d="M341.41,196.35s-18.69-13.11-40.61-9-24.28,14.33-31.8,14.79-32.66-1.68-53.29,4.33-38,6.66-40.4,4.94,12.89-36.1,12.89-40.83l-25.57-6.66s-7.31,30.51-10.17,37.39c-3.06,7.35-9,21.2-.57,33.23s31.8,6.61,46,9,77.66.87,88.74.28c12-.64,48.35-2.36,48.35-2.36Z"/><path class="cls-16" d="M494.95,128.41s1.19,18.47-2.91,24a26.34,26.34,0,0,1-3.5,4.07,8.13,8.13,0,0,0-2.34,3.38c-1.27,3.55-2,8.55-3.05,9.62s-4.29-1.8-5.45-1.8-12.4,9.7-15.09,7.71-19.1-18.64-17.72-30.06,6.41-28.46,24.89-28.36S493.53,123.82,494.95,128.41Z"/><path class="cls-19" d="M439.11,216.55c-.35.76-7.15,11.61-14.59,17.9-3.09,2.62-6.29,4.44-9.19,4.44q-1.33,0-2.59,0c-8.54.23-15.1,1.54-26.64,2.11-12,.6-41-1.07-41.9-1.07s-9.24,1.5-9.24,1.5c-3-3.65,4.94-44.91,6.45-45.12s11.17,3.44,20.41,1.93,12.89-2.36,26.64-18.48,27.5-20.2,33.31-18.91,17.33,0,17.33,0S439.61,215.47,439.11,216.55Z"/><rect class="cls-28" x="504.71" y="252.65" width="71.34" height="7.74"/><polygon class="cls-28" points="593.34 185.06 568.72 257.93 576.08 260.34 600.68 187.51 593.34 185.06"/><path class="cls-20" d="M487.18,141.64s3.44,8.92,5.27,10.15c0,0,6.65-7,2.38-24.37s-20.37-19-30.76-17.21c-12.94,2.19-26,46-25.29,50.23s15.17-22.62,27.87-20.46S479.45,142.85,487.18,141.64Z"/><path class="cls-29" d="M459.77,172.78a9.85,9.85,0,0,0-3.94.57,7.8,7.8,0,0,0-1.6.68c-3-4.63-5.72-15.62-5.82-16C450.4,164.06,459.77,172.78,459.77,172.78Z"/><path class="cls-30" d="M424.51,234.45c-3.09,2.62-6.29,4.44-9.19,4.44q-1.33,0-2.59,0l3.52-34.2Z"/><path class="cls-16" d="M439.94,201.35s1.06,26.94,1.6,31.46-.05,7.16,4.81,7.59,38.59,4.3,48.9,6,14.2-2.32,16.06-2.9,13.55-.94,17,.21c3.65,1.21,8.38,4.08,11.39,4.51s7.16,2.11,6.88,3.55-6.95,1.22-9,1.22-34.06-.86-35.63-.07c-2,1-27.9,2.29-32.62,2.29s-42.26,2.94-45.55-1.65-7.52-51.86-7.09-54S437.61,196.32,439.94,201.35Z"/><path class="cls-31" d="M441.61,201.94s1.29-35.9-10.39-35.46c-14.76.56-17,18.62-15,38.25C416.26,204.73,438.32,204.95,441.61,201.94Z"/><path class="cls-16" d="M1021.19,506.78s-2.35-15.54-3.38-16.38-1.87-.61-1.71.86,1.83,15.11,1.83,15.11-5.89-17.7-6.57-18.59c-.4-.52-2-.16-2,.64s4.83,18.75,4.83,18.75-5.53-16.52-6.33-17.07a1.29,1.29,0,0,0-1.83,1.48c.32,1.26,4.57,16.94,4.57,16.94s-4.79-11.71-5.77-11.76c-.6,0-2,.22-.7,3.19s3.72,10.38,3.72,10.38Z"/><path class="cls-16" d="M1021.08,525.25s-.45-5.18,2.13-6.86c2.19-1.43,4.1-4.79,4.69-5.83.79-1.38,4.73-4.83,3.07-5.74s-6.74,5.39-8.06,6.51-1.07-6.38-2.1-7.71-13.39-.17-13,5,4.27,10.09,4.17,11a31.6,31.6,0,0,0,.16,3.75Z"/><path class="cls-16" d="M1210.94,543.57s10.17-12,11.49-12.15,1.91.47,1,1.63-9.5,11.88-9.5,11.88,14.32-12,15.36-12.36c.61-.23,1.82.94,1.39,1.61s-14,13.41-14,13.41,13.39-11.14,14.36-11.19a1.29,1.29,0,0,1,.78,2.22c-.94.9-12.8,12-12.8,12s10.24-7.44,11.1-7c.53.29,1.61,1.25-1.09,3.08s-8.63,6.87-8.63,6.87Z"/><path class="cls-16" d="M1201.32,559.33s3.11-4.17,1.8-7c-1.11-2.36-1-6.23-.92-7.42.06-1.59-1.48-6.6.41-6.49s2.9,8.13,3.43,9.78,4.27-4.86,5.84-5.45,11.48,6.9,8.42,11-8.94,6.33-9.34,7.18a31.55,31.55,0,0,1-2.11,3.11Z"/><path class="cls-20" d="M1043,662.79s.78,5.84,4.7,7.85l3.38-6.4Z"/><path class="cls-20" d="M1101.57,688.94a93.83,93.83,0,0,0,7.25,31.28s14.19,5.86,21-3c2.7-3.5,5-15.26,6-30.27,1.53-23.1-.16-53.89-8.8-74C1127.1,612.9,1099.17,645.82,1101.57,688.94Z"/><path class="cls-32" d="M1101.57,688.94a93.83,93.83,0,0,0,7.25,31.28s14.19,5.86,21-3c2.7-3.5,5-15.26,6-30.27Z"/><path class="cls-33" d="M1027.9,862.21s4.24,7.78,4.84,9,12.9-5.62,12.9-5.62l-2.58-10.17S1029.09,860.44,1027.9,862.21Z"/><path class="cls-27" d="M1032.21,870.17s-2.29,6.48-5.48,10.12-17.22,10.87-18.75,14c-1.1,2.25-1.53,9.79,21.57.52,16.41-6.58,24.93-8.14,25.72-11.46s-9.87-18.69-9.87-18.69S1042.27,867.52,1032.21,870.17Z"/><path class="cls-27" d="M1124.13,922.24s2.88,12.19,4,16.2,7.58,12.62,8.73,16.64-.34,6.19-2.26,6.63a22.15,22.15,0,0,1-12.87-.83c-6-2.23-8.9-10.83-12.12-15.58-3-4.45-6.46-5.76-4.59-11.89,2.41-7.9,1.51-11.16,1.51-11.16Z"/><path class="cls-18" d="M1108.46,730.22s4.57,23.15,6.51,37.24c1.79,13,.51,52.17,1.76,58.64s3.59,36.47,4,41.86,6.57,61.25,6.57,61.25-4.52,5.57-23.39,1.8c0,0-6.75-56.09-7.83-65.08s-6.14-36.93-7.3-40.63c-1.94-6.19-20.47-83.42-17.78-97.62S1108.46,730.22,1108.46,730.22Z"/><path class="cls-18" d="M1048.44,722s-41,37.19-46.06,45.64-8.26,9.52-6.11,18.5,33.41,81.45,34,83.72c.6,2.5,16.53-5,18-5.18s-6.7-21.86-9.76-30.66-12.44-38.89-15-43.38,50.57-32,56.14-38.63S1077.19,714.48,1048.44,722Z"/><path class="cls-34" d="M1043.82,720.12l-1.58,7.44s17.65,10.77,68.8,16.26l.13-8.63Z"/><path class="cls-35" d="M1077.79,599.81s-15.1,3-21.84-1.14c-2.57,1.79-8,26-8.89,31.52s-.89,29.06.53,38-8,45.2-4.27,51.74c0,0,32.69,16.6,69.33,15.77,0,0-.4-36.12,2.32-47.83,3.48-15,11.7-49.56,11.7-49.56s3.43-29-.8-29.11c-10.65-.33-29.23-8-29.23-8Z"/><path class="cls-34" d="M1069.33,600.78s-.56-5.11,15.19-4.59,25.95,5.16,25.76,9.68S1069,617.3,1069,617.3Z"/><path class="cls-35" d="M1007.64,576c-3.51-9.12,1.85-56,1.85-56l15.71,3.13s.29,10.67-.91,30.06c-.37,5.94,2.9,16.46,3.32,17.41s16.59,21,23,24.63c3,1.7,9.54,6.07,13.74,11.36s1.2,11.6,1.2,11.6c-11.37,11.78-28-6.91-28-6.91S1012.56,588.74,1007.64,576Z"/><path class="cls-35" d="M1029.95,602s18,23.63,16.55,36.23c-.74,6.31,9.64-19.12,9.64-19.12Z"/><path class="cls-35" d="M1181.7,603.7c6.38-7.4,37.73-38.79,37.73-38.79l-17.2-9s-8.06,8.92-23.27,24.19c-4.2,4.21-13.51,11-14.22,11.76s-22.86,13.42-30,15.41c-2.83.79-9.55,2.91-17,2-6.7-.81-4.81,14.55-4.81,14.55,6.72,14.93,28.72,3,28.72,3S1172.75,614.06,1181.7,603.7Z"/><path class="cls-35" d="M1151.91,620.67s-25,16.15-27.81,28.52c-1.43,6.19-2.61-21.25-2.61-21.25Z"/><path class="cls-20" d="M1115.8,683.67l3.87-3.29c-13.55-15.9-17.93-32.67-13-49.84a59.17,59.17,0,0,1,12.64-22.2L1113.6,607c-.35.37-7.84,8.13-11.84,22.16a52.76,52.76,0,0,0-1.13,24.88C1102.63,664.23,1107.74,674.21,1115.8,683.67Z"/><path class="cls-20" d="M1043,662.79l4.15,2.13c-2.11-26.92,1.49-40.08,4.58-49.3,3.32-9.93,8.43-15.32,8.47-15.37l-5.05-2.14C1054.4,598.88,1037.72,613.59,1043,662.79Z"/><path class="cls-36" d="M1091.65,535.65s-24.91-12.38-27,22.27,3.63,38.81,21.21,35.82,21.35-24.59,24.69-34.82S1100,538.07,1091.65,535.65Z"/><path class="cls-36" d="M1073.68,604s5,2.88,23-2.83a78,78,0,0,1,5.31-22.4c4.54-10.61-24.55,12.16-24.55,12.16.26.23.19,1.33-.13,2.84a31.26,31.26,0,0,1-1.33,4.44C1074.57,601.82,1074.86,601.19,1073.68,604Z"/><path class="cls-20" d="M1105.13,575.64s1.06-9.2-2.68-10.46-6.28,3.85-6.28,3.85l-3.07-.5s3.76-9,.33-11.57-25.47-3-27.87-6.43,3.57-21.67,9.73-22.86,22.83-3.16,32.18,7.15c0,0,8.47,4.79,8,12.15S1108.78,571,1105.13,575.64Z"/><path class="cls-29" d="M1075.92,598.25c17.32-1,20.9-10.44,21-10.59-7.53,7.82-19.92,6.84-19.92,6.84A21.18,21.18,0,0,1,1075.92,598.25Z"/><path class="cls-36" d="M1098.53,560.8c1.47-2.92,7.9-1.84,6.72,2.91s-7.32,11.59-9.32,10S1096.5,564.82,1098.53,560.8Z"/><path class="cls-37" d="M1038.84,241.32c5.08,11.64,12.53,20.46,20.92,24.6-.08,1.09-.13,2.2-.13,3.31,0,21.91,16.36,39.73,36.73,40.29,5.56,18.08,21.48,31.14,40.26,31.14,23.4,0,42.37-20.27,42.37-45.28V34.62C1179,15.5,1165.7,0,1149.29,0c-11.82,0-22,8-26.81,19.68a34.65,34.65,0,0,0-43.21,33.55s0,.06,0,.1c-19.63,1.42-35.14,18.88-35.14,40.21a42.19,42.19,0,0,0,5.57,21.09,34.63,34.63,0,0,0-7.21,54.66c-6.5,9-10.44,22.25-10.55,37.17C1031.94,206.45,1031.61,221.89,1038.84,241.32Z"/><path class="cls-38" d="M1326.5,169.28a34.63,34.63,0,0,0-7.21-54.66,42.18,42.18,0,0,0,5.57-21.09c0-21.33-15.51-38.79-35.14-40.21,0,0,0-.06,0-.1a34.65,34.65,0,0,0-43.21-33.55C1241.72,8,1231.52,0,1219.7,0,1203.29,0,1190,15.5,1190,34.62V295.39c0,25,19,45.28,42.37,45.28,18.78,0,34.71-13.06,40.27-31.14,20.38-.56,36.73-18.39,36.73-40.29,0-1.12,0-2.22-.13-3.31,13.65-6.74,24.84-25.87,27.32-49.38C1338.56,197.59,1334.43,180.24,1326.5,169.28Z"/><path class="cls-27" d="M1271.11,301.43l-2-.4,1,.2-1-.2c0-.1,1.85-9.94-4-17.08-4.18-5.06-11.21-7.63-20.9-7.63-10,0-17.16-2.77-21.3-8.25-6.34-8.38-3.18-19.89-3-20.37l2,.57c0,.11-3,11,2.7,18.56,3.72,4.92,10.33,7.41,19.63,7.41,10.35,0,17.93,2.83,22.52,8.41C1273.16,290.55,1271.2,301,1271.11,301.43Z"/><path class="cls-27" d="M1244.13,263.14c0-.66-.72-16.27,9.69-27.23,6.44-6.79,15.7-10.23,27.5-10.23,10.4,0,18.05-3,22.75-9,8.76-11.2,4.42-29.19,4.38-29.37l2-.5c.19.78,4.63,19.14-4.75,31.15-5.11,6.54-13.32,9.86-24.4,9.86s-19.94,3.22-26,9.57c-9.8,10.3-9.14,25.55-9.14,25.7Z"/><path class="cls-27" d="M1284.67,204.63c-7.33,0-15.93-1.4-22.73-6.57-7.65-5.81-11.53-15.29-11.53-28.19,0-13.52-3.86-24-11.49-31.18-12.18-11.46-30-10.51-30.13-10.5l-.13-2.08c.76,0,18.86-1,31.69,11.07,8.06,7.58,12.14,18.58,12.14,32.7,0,12.21,3.6,21.13,10.7,26.53,13.75,10.44,36.26,4.32,36.49,4.25l.56,2A63.34,63.34,0,0,1,1284.67,204.63Z"/><path class="cls-27" d="M1231.74,123.52l-2.07-.22a43.54,43.54,0,0,1,4.91-14.85c5.44-9.81,14.09-15,25-15,26.17,0,29.7-15,29.7-29.7h2.08c0,10-1.88,17.06-5.92,22.17-5.12,6.47-13.58,9.61-25.86,9.61-10.27,0-18.07,4.67-23.19,13.87A42.21,42.21,0,0,0,1231.74,123.52Z"/><path class="cls-27" d="M1260.53,162.85a26.05,26.05,0,0,1-4.18-.3l.36-2.05c.11,0,10.7,1.77,17.84-4.24,4.42-3.72,6.67-9.67,6.67-17.66,0-8.2,2.47-14.5,7.35-18.72,8.66-7.48,21.65-5.67,22.2-5.59l-.3,2.06c-.17,0-12.63-1.73-20.54,5.11-4.39,3.8-6.62,9.56-6.62,17.13,0,8.65-2.5,15.13-7.42,19.27S1264.6,162.85,1260.53,162.85Zm49.94-46.5h0l.15-1Z"/><path class="cls-27" d="M1244.92,92c-2.13,0-16.09-.33-24.55-8.63-4.18-4.11-6.31-9.5-6.31-16,0-12.61,7.84-17.3,15.41-21.83s14.63-8.76,14.63-20.56h2.08c0,13-8,17.75-15.65,22.35-7.4,4.43-14.4,8.62-14.4,20,0,5.94,1.91,10.83,5.67,14.53,8.34,8.2,23.16,8,23.31,8l0,2.08Z"/><path class="cls-27" d="M1203.69,220.36h-2.08c0-8,2.23-26.73,22.87-26.73,7.75,0,13.39-3.27,16.79-9.72a26.81,26.81,0,0,0,2.85-10l2.08.1a28.43,28.43,0,0,1-3.06,10.78c-2.6,5-7.95,10.9-18.67,10.9C1206.39,195.71,1203.69,211.15,1203.69,220.36Z"/><path class="cls-27" d="M1097.88,301.43c-.09-.44-2-10.88,4.46-18.79,4.59-5.58,12.17-8.41,22.52-8.41,9.3,0,15.9-2.49,19.63-7.41,5.71-7.54,2.74-18.45,2.7-18.56l2-.57c.14.49,3.3,12-3,20.37-4.14,5.47-11.3,8.25-21.3,8.25-9.7,0-16.73,2.57-20.91,7.65-5.89,7.16-4,17-4,17.07Z"/><path class="cls-27" d="M1124.86,263.14l-2.08-.11c0-.15.66-15.4-9.14-25.7-6-6.35-14.77-9.57-26-9.57s-19.29-3.32-24.4-9.86c-9.38-12-4.94-30.37-4.75-31.15l2,.5c0,.18-4.38,18.17,4.38,29.37,4.69,6,12.35,9,22.75,9,11.8,0,21.05,3.44,27.49,10.23C1125.57,246.87,1124.89,262.48,1124.86,263.14Z"/><path class="cls-27" d="M1084.32,204.63a63.32,63.32,0,0,1-15.58-2l.56-2c.23.06,22.76,6.17,36.5-4.26,7.1-5.39,10.7-14.31,10.7-26.52,0-14.12,4.09-25.12,12.15-32.7,12.83-12.07,30.92-11.11,31.69-11.07l-.13,2.08c-.18,0-18-.94-30.15,10.52-7.61,7.17-11.47,17.66-11.47,31.17,0,12.9-3.88,22.38-11.53,28.19C1100.25,203.22,1091.65,204.63,1084.32,204.63Z"/><path class="cls-27" d="M1137.25,123.52a42.14,42.14,0,0,0-4.69-14.12c-5.12-9.2-12.92-13.87-23.19-13.87-12.28,0-20.74-3.14-25.86-9.61-4-5.1-5.92-12.15-5.92-22.17h2.08c0,14.69,3.53,29.7,29.7,29.7,10.95,0,19.61,5.18,25,15a43.5,43.5,0,0,1,4.91,14.85Z"/><path class="cls-27" d="M1108.46,162.85c-4.08,0-10.36-.8-15.35-5s-7.43-10.62-7.43-19.27c0-7.57-2.23-13.34-6.63-17.14-7.94-6.86-20.41-5.12-20.53-5.1l-.3-2.06c.55-.08,13.54-1.89,22.2,5.59,4.88,4.21,7.35,10.51,7.35,18.72,0,8,2.25,13.95,6.68,17.67,7.16,6,17.72,4.25,17.83,4.23l.36,2.05A26.15,26.15,0,0,1,1108.46,162.85Z"/><path class="cls-27" d="M1124.07,92h-.25l0-2.08c.15,0,15,.16,23.31-8,3.77-3.7,5.67-8.59,5.67-14.53,0-11.43-7-15.61-14.4-20-7.69-4.6-15.65-9.36-15.65-22.35h2.08c0,11.8,7.11,16.06,14.63,20.56s15.41,9.22,15.41,21.83c0,6.53-2.12,11.92-6.31,16C1140.16,91.72,1126.19,92,1124.07,92Z"/><path class="cls-27" d="M1167.38,220.36h-2.08c0-9.2-2.7-24.65-20.79-24.65-10.72,0-16.07-5.93-18.67-10.9a28.49,28.49,0,0,1-3.06-10.78l2.08-.1h0a26.84,26.84,0,0,0,2.85,10c3.4,6.45,9,9.72,16.79,9.72C1165.16,193.63,1167.38,212.32,1167.38,220.36Z"/></g></g></g></svg>