<svg width="96px" height="102px" xmlns="http://www.w3.org/2000/svg" xmlns:xlink="http://www.w3.org/1999/xlink" viewBox="0 0 91.61 96.54"><defs><style>.cls-1,.cls-3,.cls-4{fill:none;}.cls-2{clip-path:url(#clip-path);}.cls-3,.cls-4{stroke:#87ba0b;stroke-miterlimit:10;stroke-width:3px;}.cls-4{stroke-linecap:round;}</style><clipPath id="clip-path" transform="translate(0 0)"><rect class="cls-1" width="91.61" height="96.54"/></clipPath></defs><title>approach4</title><g id="Слой_2" data-name="Слой 2"><g id="Слой_1-2" data-name="Слой 1"><g class="cls-2"><path class="cls-3" d="M59.14,77.49l-24.37-.21A4.66,4.66,0,1,1,34.86,68l24.37.21a4.66,4.66,0,0,1-.08,9.32Z" transform="translate(0 0)"/><path class="cls-3" d="M59.06,86.92l-24.37-.21a4.66,4.66,0,0,1,.08-9.32l24.37.21a4.66,4.66,0,0,1-.08,9.32Z" transform="translate(0 0)"/><path class="cls-3" d="M24,46.15h0l.14.19a63.15,63.15,0,0,1,9.58,21.73H59.79a63.15,63.15,0,0,1,9.58-21.73l.14-.19c.49-.67,1-1.37,1.38-2.08a28.12,28.12,0,1,0-48.28,0C23.05,44.79,23.51,45.48,24,46.15Z" transform="translate(0 0)"/><path class="cls-3" d="M36.06,86.83a11.11,11.11,0,0,0,21.4.18Z" transform="translate(0 0)"/><path class="cls-3" d="M41.85,68V44.49a4.18,4.18,0,1,0-4.19,4.18H47" transform="translate(0 0)"/><path class="cls-3" d="M52.07,68V44.49a4.18,4.18,0,1,1,4.18,4.18H47" transform="translate(0 0)"/><line class="cls-4" x1="82.26" y1="35.29" x2="90.11" y2="35.29"/><line class="cls-4" x1="82.56" y1="25.3" x2="89.56" y2="21.75"/><line class="cls-4" x1="79.83" y1="44.57" x2="86.83" y2="48.12"/><line class="cls-4" x1="9.35" y1="35.29" x2="1.5" y2="35.29"/><line class="cls-4" x1="9.05" y1="25.3" x2="2.05" y2="21.75"/><line class="cls-4" x1="11.78" y1="44.57" x2="4.78" y2="48.12"/></g></g></g></svg>