<svg width="86px" height="115px" xmlns="http://www.w3.org/2000/svg" xmlns:xlink="http://www.w3.org/1999/xlink" viewBox="0 0 81.72 109.57"><defs><style>.cls-1,.cls-3,.cls-4{fill:none;}.cls-2{clip-path:url(#clip-path);}.cls-3,.cls-4{stroke:#fe7302;stroke-linecap:round;stroke-width:3px;}.cls-3{stroke-linejoin:round;}.cls-4{stroke-miterlimit:10;}</style><clipPath id="clip-path" transform="translate(0 0)"><rect class="cls-1" width="81.72" height="109.57"/></clipPath></defs><title>approach6</title><g id="Слой_2" data-name="Слой 2"><g id="Слой_1-2" data-name="Слой 1"><g class="cls-2"><circle class="cls-3" cx="11.74" cy="18.99" r="3.87"/><circle class="cls-3" cx="26.08" cy="5.37" r="3.87"/><circle class="cls-3" cx="71.33" cy="22.87" r="3.87"/><path class="cls-4" d="M30.29,41.26,9.75,41.09a3.34,3.34,0,0,1-3.31-3.37v-.85a3.34,3.34,0,0,1,3.37-3.31l20.53.17a3.34,3.34,0,0,1,3.31,3.37V38A3.34,3.34,0,0,1,30.29,41.26Z" transform="translate(0 0)"/><path class="cls-4" d="M29.12,64.59V41.26H11V64.59L1.5,99.06a8.77,8.77,0,0,0,8.77,8.77H29.84a8.77,8.77,0,0,0,8.77-8.77Z" transform="translate(0 0)"/><path class="cls-4" d="M6.71,80.14s5.4-3.46,13.34.7a9.93,9.93,0,0,0,12.83-2.55" transform="translate(0 0)"/><path class="cls-4" d="M76.84,41.26l-20.53-.17A3.34,3.34,0,0,1,53,37.72v-.85a3.34,3.34,0,0,1,3.37-3.31l20.53.17a3.34,3.34,0,0,1,3.31,3.37V38A3.34,3.34,0,0,1,76.84,41.26Z" transform="translate(0 0)"/><path class="cls-4" d="M57.55,99a9.06,9.06,0,1,0,18.13,0V41.26H57.55Z" transform="translate(0 0)"/><path class="cls-4" d="M57.55,99a9.06,9.06,0,1,0,18.13,0V41.26H57.55Z" transform="translate(0 0)"/><path class="cls-4" d="M57.55,78.88a15.8,15.8,0,0,1,9.32,2,9.75,9.75,0,0,0,8.81.57" transform="translate(0 0)"/></g></g></g></svg>