<svg width="101px" height="101px" xmlns="http://www.w3.org/2000/svg" xmlns:xlink="http://www.w3.org/1999/xlink" viewBox="0 0 90.38 90.06"><defs><style>.cls-1,.cls-3{fill:none;}.cls-2{clip-path:url(#clip-path);}.cls-3{stroke:#fe7302;stroke-linecap:round;stroke-linejoin:round;stroke-width:3px;}</style><clipPath id="clip-path" transform="translate(0)"><rect class="cls-1" width="90.38" height="90.06"/></clipPath></defs><title>approach1</title><g id="Слой_2" data-name="Слой 2"><g id="Слой_1-2" data-name="Слой 1"><g class="cls-2"><rect class="cls-3" x="67.76" y="1.5" width="21.12" height="87.06"/><line class="cls-3" x1="88.88" y1="11.94" x2="78.32" y2="11.94"/><line class="cls-3" x1="88.88" y1="32.12" x2="78.32" y2="32.12"/><line class="cls-3" x1="88.88" y1="52.29" x2="78.32" y2="52.29"/><line class="cls-3" x1="88.88" y1="72.46" x2="78.32" y2="72.46"/><line class="cls-3" x1="88.88" y1="18.62" x2="83.6" y2="18.62"/><line class="cls-3" x1="88.88" y1="25.37" x2="83.6" y2="25.37"/><line class="cls-3" x1="88.88" y1="38.83" x2="83.6" y2="38.83"/><line class="cls-3" x1="88.88" y1="45.58" x2="83.6" y2="45.58"/><line class="cls-3" x1="88.88" y1="59.04" x2="83.6" y2="59.04"/><line class="cls-3" x1="88.88" y1="65.78" x2="83.6" y2="65.78"/></g><line class="cls-3" x1="48.18" y1="32.12" x2="41.85" y2="32.12"/><line class="cls-3" x1="48.18" y1="52.29" x2="41.85" y2="52.29"/><line class="cls-3" x1="48.18" y1="72.46" x2="41.85" y2="72.46"/><line class="cls-3" x1="48.18" y1="18.62" x2="45.01" y2="18.62"/><line class="cls-3" x1="48.18" y1="25.37" x2="45.01" y2="25.37"/><line class="cls-3" x1="48.18" y1="38.83" x2="45.01" y2="38.83"/><line class="cls-3" x1="48.18" y1="45.58" x2="45.01" y2="45.58"/><line class="cls-3" x1="48.18" y1="59.04" x2="45.01" y2="59.04"/><line class="cls-3" x1="48.18" y1="79.54" x2="45.01" y2="79.54"/><line class="cls-3" x1="48.18" y1="65.78" x2="45.01" y2="65.78"/><g class="cls-2"><polygon class="cls-3" points="1.5 88.56 48.18 1.5 48.18 88.56 1.5 88.56"/></g><polygon class="cls-3" points="22.71 75.87 35.48 52.05 35.48 75.87 22.71 75.87"/></g></g></svg>