<svg width="111px" height="94px" xmlns="http://www.w3.org/2000/svg" xmlns:xlink="http://www.w3.org/1999/xlink" viewBox="0 0 105.79 89.79"><defs><style>.cls-1,.cls-5{fill:none;}.cls-2{clip-path:url(#clip-path);}.cls-3,.cls-4{fill:#87ba0b;}.cls-4{font-size:14.68px;font-family:Leafy, Leafy;}.cls-5{stroke:#87ba0b;stroke-linecap:round;stroke-miterlimit:10;stroke-width:3px;}</style><clipPath id="clip-path" transform="translate(0)"><rect class="cls-1" width="105.79" height="89.79"/></clipPath></defs><title>approach5</title><g id="Слой_2" data-name="Слой 2"><g id="Слой_1-2" data-name="Слой 1"><g class="cls-2"><path class="cls-3" d="M33.92,40.19c.19.06.38.13.6.22a2.49,2.49,0,0,0,1.83-.28l1.07-.38a1.59,1.59,0,0,1,.41,0,.48.48,0,0,0,0,.19s0,.06.06.09a1.34,1.34,0,0,1-.09.28c.16.16.28.32.41.44a.39.39,0,0,1,.06.47.41.41,0,0,0,0,.19.87.87,0,0,1-.5.73,4.54,4.54,0,0,1-1.42.38,1.15,1.15,0,0,0-.63.19,1.13,1.13,0,0,1-.47.06,6.33,6.33,0,0,1-.76-.1,4.09,4.09,0,0,1-1.61-.57,1.8,1.8,0,0,0-.25-.12,2.34,2.34,0,0,0-.28-.16c-.06-.09-.16-.19-.25-.32s-.09-.13-.16-.16a6.19,6.19,0,0,1-.73-1,3.65,3.65,0,0,1-.35-1.14,4.19,4.19,0,0,1-.19-1.52c0-.51.06-1,.09-1.55,0-.16,0-.32,0-.47,0-.54,0-1,0-1.58,0-.92,0-1.8.06-2.69,0-.66.06-1.29.09-1.93L31,27c0-.54.06-1.07.13-1.61.09-.85.19-1.67.32-2.5,0-.25.09-.51.13-.79a.8.8,0,0,1,.7-.57c.19,0,.41,0,.6-.06a8,8,0,0,1,.85-.09c.41,0,.82,0,1.23,0l.32,0a6.7,6.7,0,0,1,.79,0c.38,0,.76.13,1.14.16l.38.1c.06,0,.16.06.16.13.09.22.28.19.44.22l.47.09a2,2,0,0,1-.06.22,0,0,0,0,1,0,0l-.28.28,0,0a.93.93,0,0,1-.28.06.19.19,0,0,1-.13,0v.06a1.36,1.36,0,0,1-.35.06,6.7,6.7,0,0,0-1.07.16,3.39,3.39,0,0,1-.54.13,1.36,1.36,0,0,1-.16,0,4.87,4.87,0,0,1-1.14.06l-1,.19a.19.19,0,0,0-.19.25,3.93,3.93,0,0,1-.13,1.2c0,.19,0,.38-.06.57s0,.35-.06.54.06.19.06.25a4.32,4.32,0,0,1,0,.63,9.45,9.45,0,0,1,.06,1c0,.16-.06.32-.06.47s0,.44,0,.66c0,.06,0,.13,0,.19v1.36c0,.13,0,.28,0,.35-.16.25-.25,0-.38,0,0,.28.25.32.44.38a.39.39,0,0,0,.19,0c.47-.06,1-.19,1.45-.22a4.45,4.45,0,0,1,.92,0c.41,0,.79.06,1.17.13l.89.19a.32.32,0,0,1-.13.41,1.31,1.31,0,0,0-.22.35l-.19.19s0,.09,0,.13v0c-.22.16-.35.41-.66.51s-.6,0-.92.1a5.47,5.47,0,0,1-2,0h-.54a1.16,1.16,0,0,0-.22.19.24.24,0,0,1,0,.13h0c0,.25,0,.47,0,.73,0,0,0,.06,0,.09h0c0,.92.06,1.83.09,2.81.16.13.1.35.06.57,0,0,0,.06.06.1v.88h.06a.45.45,0,0,0,.06.19c0,.32.06.63.13.95a3.06,3.06,0,0,0,.16.5s0,.09,0,.09.09.1.13.1m-1.48-9.48a2.87,2.87,0,0,1-.19-.31.24.24,0,0,0,0,.13,1.41,1.41,0,0,0,.19.22Zm.06,9,.16.16,0,0,.22.09a.12.12,0,0,1,0-.09.15.15,0,0,0-.09,0c-.06,0-.06-.1-.09-.13a.12.12,0,0,1,0-.1c-.09,0-.19.1-.28.13m1.17.35V40c-.06-.06-.13-.09-.19-.16,0,.1-.06.19-.09.32.09,0,.19,0,.28-.06" transform="translate(0)"/><path class="cls-3" d="M42.48,27.9c.1-.13.16.19.25,0a.11.11,0,0,0,.06,0c.16,0,.32-.06.41.16,0-.1.1-.06.13-.1s.32-.16.47,0,.13-.13.22,0c.06-.16.13,0,.22-.06a1.55,1.55,0,0,1,.54,0s.06.1.1.13c0-.19.1-.16.19-.16s.38,0,.6,0,.63-.1.95-.13a6,6,0,0,0,1.07,0s.06.06.09.1c0-.13.06-.13.13-.13.51,0,1-.13,1.52.38a.52.52,0,0,1,.09.44c0,.22,0,.41,0,.63.06.6-.22.6-.41.63a11.25,11.25,0,0,1-2.31.16,1.07,1.07,0,0,0-.32,0c-.28,0-.54,0-.82.06a2,2,0,0,0-.44.06c-.06,0-.09,0-.09-.06s-.06,0-.06-.06v.09A.07.07,0,0,1,45,30H43.59s0-.06,0-.1v0s-.06,0-.06.06a.12.12,0,0,1,0,.06,16.08,16.08,0,0,1-2.46.06,9.53,9.53,0,0,1-1-.16c-.25-.06-.13-.44-.1-.63a2,2,0,0,1,.25-.92c.16-.16.32-.35.54-.35a3.54,3.54,0,0,0,.57-.06h.95c.06-.06.09-.09.16,0m0,4.45c.1-.16.16.16.25,0l.06-.06c.16,0,.32,0,.41.19,0-.13.1-.06.13-.1a.35.35,0,0,1,.47,0s.13-.13.22,0c.06-.19.13-.06.22-.06a1.49,1.49,0,0,1,.54,0s.06.09.1.16c0-.19.1-.19.19-.19a1.87,1.87,0,0,0,.6,0c.32,0,.63-.1.95-.1s.73.06,1.07,0c0,0,.06,0,.09.06,0-.13.06-.09.13-.09.51,0,1-.16,1.52.35a.55.55,0,0,1,.09.44c0,.22,0,.44,0,.66.06.57-.22.57-.41.6a9.33,9.33,0,0,1-2.31.16h-.32c-.28,0-.54,0-.82,0l-.44.06c-.06,0-.09,0-.09-.06s-.06,0-.06-.06v.09a.07.07,0,0,1-.06.06c-.47,0-.95,0-1.45,0v0s0-.06,0-.1a.11.11,0,0,0-.06,0s0,0,0,.06a10.74,10.74,0,0,1-2.46.06,5.2,5.2,0,0,1-1-.16c-.25-.06-.13-.44-.1-.63a1.73,1.73,0,0,1,.25-.88c.16-.19.32-.38.54-.38s.38,0,.57,0,.63,0,.95,0c.06-.06.09-.06.16,0m-2.34-3.06c0,.16.06-.16.1-.06l0,0v-.06c-.1,0-.1.13-.13.16m0,4.42c0,.16.06-.16.1,0,0,0,0,0,0-.06v0c-.1-.06-.1.09-.13.13m.22-5.18v.06s0-.06.06-.09a.11.11,0,0,0-.06,0m0,4.45v0s0-.06.06-.09-.06,0-.06.06m0-4.58v0Zm.13.22,0,0s0,.06,0,.1a.11.11,0,0,0,0,.06v0s0-.06,0-.09a.07.07,0,0,1,.06-.06m0,4.42h0a.11.11,0,0,0,0,.06.11.11,0,0,1,0,.06v0s0-.06,0-.09,0,0,.06-.06m0-4.33a0,0,0,0,1,0,0s0-.06,0-.1l0,0a.11.11,0,0,1,0,.09m0,4.42,0,0s0-.06,0-.1a0,0,0,0,1,0,0,.12.12,0,0,1,0,.09m.16-4.9c0-.06-.06-.1-.06-.16a.11.11,0,0,1,0,.06.52.52,0,0,0,.06.16.11.11,0,0,1,0-.06m0,4.42a.25.25,0,0,1-.06-.13l0,0c0,.06,0,.1.06.16a.11.11,0,0,1,0-.06m.19-4.26c.06,0,0,0,0-.06s0-.09,0-.09-.13-.13-.13.06.09.1.13.1Zm0,4.45c.06,0,0-.06,0-.06s0-.09,0-.13-.13-.13-.13.06.09.1.13.13Zm-.1-4.77v0a0,0,0,0,0,0,0v0a0,0,0,0,0,0,0m0,4.42v0l0,0v.06s0,0,0-.06m.1-3.22v0h0a0,0,0,0,1,0,0m0,4.45h0ZM41,28.5h0a0,0,0,0,0,0,0ZM41,33a0,0,0,0,0,0,0,0,0,0,0,1,0,0V33ZM41.13,28s-.06,0-.09,0l0,.06c0,.09.06.06.1,0a.11.11,0,0,0,0-.06m0,4.45s-.06-.06-.09-.06a.3.3,0,0,0,0,.09c0,.06.06.06.1,0Zm.1-4.52s0,0,0,0,0,0,0,.06a0,0,0,0,1,0,0Zm0,.22v0a0,0,0,0,1,0,0Zm0,4.2s0,0,0,0a0,0,0,0,0,0,0l0,0s0,0,0,0m0,.25v0h0s0,0,0,0m0-4.23h0a0,0,0,0,0,0,0Zm0,4.45s0,0,0,0,0,0,0,.06Zm0,0v0Zm.06-4.71,0,0v-.06a0,0,0,0,0,0,0Zm0,.32v0l0,0Zm0,4.11a0,0,0,0,0,0,0v0h0Zm0,.35v0a0,0,0,0,1,0,0s0,0,0,0m.1-4.58s0,0,0-.06v.06Zm0,.38v0Zm0,4a0,0,0,0,0,0,0v.06a0,0,0,0,1,0,0m0-4.8a0,0,0,0,1,0,0v0Zm0,4.42h0Zm0,.63v0Zm0-4.74s.06-.06.06-.1,0-.06,0,0a.11.11,0,0,0,0,.06Zm0,4.45c0-.06.06-.1.06-.13l0,0a.11.11,0,0,0,0,.06Zm0-.28v0Zm.06-4.17v0l0,0Zm0,1.55a0,0,0,0,0,0,0,0,0,0,0,0,0,0m0,2.9v0h0Zm0,1.52v0a0,0,0,0,1,0,0s0,0,0-.06m0,.13v0Zm.09-6.1-.06.13s.06,0,.13,0l0,0c0-.06-.06-.13-.09-.13m0,4.42a.45.45,0,0,1-.06.13s.06,0,.13,0,0,0,0,0-.06-.1-.09-.13m0-3.38h0Zm0,4.42v0a0,0,0,0,1,0,0Zm.06-5.5h0s0,0,0,0Zm0,4.42a0,0,0,0,0,0,0h0Zm0-4.52h0a.1.1,0,0,1,0,.06.11.11,0,0,1,.06,0s0,0-.06,0m0,4.42a0,0,0,0,1,0,0,0,0,0,0,1,0,0,.1.1,0,0,0,.06,0s0,0-.06,0m.1-4.61,0,0a0,0,0,0,1,0,0l0,0a0,0,0,0,0,0,0m0,4.42s0,0,0,0l0,0a0,0,0,0,0,0,0Zm0,.47v0ZM42,28.41l0,0v.09a.1.1,0,0,0,0-.06m0,4.42a0,0,0,0,1,0,0v.09s0,0,0-.06m.06-4.71,0,0a.1.1,0,0,1,0,.06,0,0,0,0,1,0,0s0,0,0-.06m0,4.42,0,0s0,0,0,.06l0,0a.11.11,0,0,0,0-.06M42.17,28v0a0,0,0,0,0,0,0v0a0,0,0,0,0,0,0m0,.6h0a0,0,0,0,0,0,0Zm0,3.82h0v0s0,0,0,0m0,.63v0h0s0,0,0,.06Zm.06-4.49v0c0-.06,0-.1,0-.13a0,0,0,0,0,0,0s0,.06.06.13m0,4.42v0s0-.09,0-.13l0,0s0,.09.06.13m.22-4.9a.94.94,0,0,1-.22-.16.11.11,0,0,0,0,.06,1.38,1.38,0,0,1,.16.22.41.41,0,0,1,.09-.13m0,4.45a1,1,0,0,0-.22-.16l0,0c.06.06.09.16.16.22l.09-.1m-.19-3.79v0h0v.06Zm0,4.42h0v0s0,0,0,0m.06-4.45v.06s0,0,0,0a0,0,0,0,1,0,0m0,4.45v0l0,0Zm.06-4.8a0,0,0,0,1,0,0l0,0a0,0,0,0,1,0,0,0,0,0,0,1,0,0m0,4.45a0,0,0,0,0,0,0h0l0,0Zm0-3.73v0Zm0-.92v0Zm.09-.19h-.06v0a.42.42,0,0,0,.13.09v-.09s0,0-.06,0m0,4.45a.11.11,0,0,1-.06,0v0a.42.42,0,0,0,.13.09v-.09Zm0-3.73v0l0,0a0,0,0,0,0,0,0Zm0,4.45v-.06l0,0s0,0,0,.06Zm0-4.86v0Zm0,.51a0,0,0,0,1,0,0l0,0v-.06a0,0,0,0,1,0,0v0a0,0,0,0,0,0,0m0,3.92v0Zm0,.5s0,0,0,0a0,0,0,0,0,0,0v-.06h0v0Zm.06-3.92v0a.1.1,0,0,0,0-.06s0,0,0,.06,0,0,.06,0m0,4.42h0s0-.06,0-.06l0,0s0,0,.06,0m0-5.87,0,0v0Zm0,4.39s0,0,0,0a0,0,0,0,0,0,0v-.06Zm.06-3.57a0,0,0,0,0,0,0v0s0,0,0,0Zm0,4.45h0v0s0,0,0,0Zm0-.13v0Zm0,1.07v0Zm.13-6.19h0v0a0,0,0,0,0,0,0m0,.54v0s0,0,0,0Zm0,3.92a0,0,0,0,0,0,0v.06a0,0,0,0,1,0,0m0,.51V33a0,0,0,0,0,0-.06m.06-3.47s0,0,0,.06h0l0,0a0,0,0,0,1,0,0m0,4.45s0,0,0,0a0,0,0,0,0,0,0,0,0,0,0,1,0,0ZM43,28.34v0a0,0,0,0,0,0,0v.09c0-.06,0-.06,0-.09m0,1.11h0l0,0Zm0,3.35v-.06s0,0,0,.06v.06a.1.1,0,0,0,0-.06m0,1.07h0a0,0,0,0,0,0,0Zm0-4.61v0s0,0,0,.06v0a0,0,0,0,0,0,0v0s0,0,.06,0,0,0-.06,0m0,4.42v0s0,.06,0,.09v-.06l0,0v0h0Zm.06-4.9v0a0,0,0,0,1,0,0,0,0,0,0,1,0,0Zm0,.54v0Zm0,3.88h0l0,0Zm0,.54v0Zm.1-5.75h0a.11.11,0,0,0,0,.06s0,0,.06-.06m0,.31a0,0,0,0,0,0,0c0,.06,0,.16,0,.22a0,0,0,0,0,0,0v-.06a.28.28,0,0,1,0-.16m0,1.26-.06.06s0,0,0,.06,0,0,.06-.06a.1.1,0,0,1,0-.06m0,2.87,0,0s0,0,0,.06v0s0-.06.06-.06m0,.32h0c0,.09,0,.16,0,.25a0,0,0,0,1,0,0v-.06a.34.34,0,0,1,0-.16m0,1.26s0,0-.06,0a.1.1,0,0,1,0,.06s0,0,.06,0a.1.1,0,0,1,0-.06m.06-4.86,0,0s-.06.06-.06.1l0,0s.06-.06.06-.09m0,4.45a.12.12,0,0,0,0-.06s-.06.06-.06.1a0,0,0,0,0,0,0s.06,0,.06-.06m-.06.6v0Zm0-5.5v0Zm0-.35a.07.07,0,0,0,.06-.06c.06-.06.06-.16,0-.16a1.71,1.71,0,0,0,0,.22s0,0,0,0,0,0,0,0m0,4.45s.06,0,.06-.06.06-.19,0-.19a1.71,1.71,0,0,0,0,.22s0,0,0,.06Zm.1-3.82h0v0s0,0,0,0m0,4.45a0,0,0,0,1,0,0v.06Zm.06-5.34v0a0,0,0,1,0,0,.06Zm0,.6a1.85,1.85,0,0,1,.22-.06.31.31,0,0,0,.09-.38v-.06c0,.09,0,.19,0,.25s-.06,0-.1.06v-.13a.07.07,0,0,0,0-.13c-.09,0-.16,0-.22.19a.19.19,0,0,1,0,.13c0,.1,0,.16.06.13m0,.63s0-.06,0-.09v0a.11.11,0,0,0,0,.09Zm.09.48v-.1h-.13a.41.41,0,0,1,.13.1m-.09,2.72h0l0,0Zm0,.63.22-.09a.31.31,0,0,0,.09-.38v0c0,.06,0,.16,0,.25v0s-.06,0-.1.06v-.13c.1-.06,0-.1,0-.1s-.16,0-.22.16a.28.28,0,0,1,0,.16c0,.09,0,.16.06.13m0,.6a.11.11,0,0,0,0-.06h0a.11.11,0,0,0,0,.09Zm0,.41a.43.43,0,0,1,.13.1v-.13h-.13Zm0,0v0ZM43.4,28h0v0a0,0,0,0,0,0,0m0,4.45v0s0,0,0,0Zm0-4.36v0l.1.1a.11.11,0,0,0,.06,0s.1-.09.06-.13a.63.63,0,0,0-.25-.13.19.19,0,0,1,0,.13Zm0,.54s0,.06,0,0,0,0,.06,0a.11.11,0,0,1,0-.06s0,.06-.06.06m.09.63s0-.06-.06-.1l0,0s.06.06.06.09a0,0,0,0,0,0,0m-.06,3.28v-.06l.1.1a.07.07,0,0,0,.06.06s.1-.13.06-.13-.16-.1-.25-.13a.12.12,0,0,1,0,.1Zm.06.54s0,0-.06,0l0,0,.06-.06s0,0,0,.06m0,.6s0-.06-.06-.1l0,0a.16.16,0,0,1,.06.13s0,0,0-.06m.09-4.74h0s0,0,0,.06Zm0,4.42s0,0,0,0a0,0,0,0,1,0,0v-.06Zm.13-5.4s0-.06,0-.09a0,0,0,0,0,0,0s0,.06.06.06,0,0,0,.06,0,0,0-.06m0,4.45s0-.06,0-.09h0s0,.06.06.09l0,0Zm0,.51v0Zm.09-4.9v0h0Zm.1.51,0,0s0,0-.06,0,0,0,.06,0a0,0,0,0,0,0,0m-.1,3.95v0s0,0,0,0m.1.51s0-.06,0,0h-.06s0,0,.06,0Zm0-4.58c.06-.16-.1,0-.06-.16h0c0,.06,0,.13,0,.19s.06,0,.06,0m0,4.45c.06-.16-.1,0-.06-.16l0,0c0,.06,0,.13,0,.19ZM44.06,28s0-.06,0,0l-.1.09s0,0,.06.06,0-.09.06-.13m0,4.42,0,0-.1.1s0,.06.06.1,0-.1.06-.16M44,28.25s0,.06,0,.06.06,0,.1-.06v-.06s0,.06-.06.1,0,0-.06,0M44,29v0Zm0,3.7a.1.1,0,0,1,0,.06s.06,0,.1-.06v-.06s0,.06-.06.1a.11.11,0,0,0-.06,0M44.16,29s0,0,0-.06a0,0,0,0,0,0,0s0,0,0,.06Zm-.06,4v0Zm.06.41s0-.06,0-.1l0,0s0,.06,0,.09,0,0,0,0m0-5.43V28a0,0,0,0,0,0,0s0,0,0,.06Zm0,4.42v-.06l0,0s0,0,0,.06Zm.16-4.3v0c-.13.06,0,.35-.13.38,0,0,.06,0,.09.06.09-.13,0-.28,0-.41m0,4.42v0c-.13.06,0,.35-.13.41,0,0,.06,0,.09,0s0-.28,0-.41m-.06-3v0h0s0,0,0,0m0,4.42v0a0,0,0,0,0,0,0Zm.09-5.15a.12.12,0,0,1-.09,0v0a.12.12,0,0,0,.09,0Zm-.09,4.42v0h.09a.12.12,0,0,0-.09,0m.06-3.69h0s0,0,0,.06Zm0,4.45v0l0,0,0,0Zm.09-5.78a0,0,0,0,0,0,0,.11.11,0,0,0,0,.06v.06s.06-.06.06-.09m-.06.63v0Zm0,.5v0Zm.06,3.32s0-.06,0-.06a.12.12,0,0,1,0,.06v.06s.06,0,.06-.06m-.06.6v0Zm0,.51v0Zm0-4.23v0Zm0,4.42v0Zm.09-4.86v0s0,0-.06,0,0,0,0,0Zm-.06.13v.06l0,0a0,0,0,0,0,0,0m.06,4.33v-.06h-.06l0,0a0,0,0,0,1,0,0m-.06.13v0h0s0,0,0,0m.06-4.9,0,0a0,0,0,0,0,0,0Zm0,4.45v0l0,0s0,0,0,.06Zm0-5.15v0Zm0,4.45v0Zm0-4.39s0,.06,0,.1,0-.06.06-.06,0-.06-.06-.06Zm0,1.11a0,0,0,0,0,0,0v-.06a0,0,0,0,0,0,0m0,3.35s0,0,0,.06,0,0,.06-.06l-.06-.06s0,0,0,.06m0,1.11h0v-.06s0,0,0,.06m.1-5.12h0l0,0Zm0,.44v0a0,0,0,0,0,0,0s0-.06,0-.06m0,4a0,0,0,0,1,0,0,0,0,0,0,1,0,0Zm0,.47s0,0,0-.06v0s0,0,0,.06Zm0-5.47h0c0-.06,0-.09,0-.13Zm0,.47v0Zm0,3.95h0a.24.24,0,0,0,0-.13Zm0,.22v0Zm.1-3.66h0Zm0,4.45a0,0,0,0,0,0,0Zm0-5.53h0v0a0,0,0,0,0,0,0m0,.69V28.6s0,0,0,.06Zm0,3.76s0,0,0,0v0Zm0,.69v-.06l0,0a0,0,0,0,1,0,0m0-4.8s0,0,0,.06v-.06Zm.06.95s0,0,0-.06a0,0,0,0,0,0,0,.11.11,0,0,1,0,.06s0,0,0,0m-.06,3.51,0,0v-.06Zm.06.92a0,0,0,0,1,0,0s0,0,0,0,0,0,0,.06a0,0,0,0,1,0,0m0-5.59,0,0v.06a0,0,0,0,0,0,0m0,.76,0,0a0,0,0,0,1,0,0v.06Zm0,.79a0,0,0,0,1,0,0h0Zm0,2.91a0,0,0,0,0,0,0h0v.06Zm0,.73h0s0,0,0,0Zm0,.82,0,0v0Zm.1-5s0,0,0,.06v.06s0,0,0-.06Zm0,.57h0s0,0,0,0Zm0,.16v0a0,0,0,0,0,0,0Zm0,3.73s0,0,0,0v.09a.12.12,0,0,0,0-.09Zm0,.57v0s0,0,0,0l0,0Zm0,.13h0Zm.06-5.62s0-.1,0-.13l0,0a.19.19,0,0,1,0,.13Zm0,4.42s0-.06,0-.13a0,0,0,0,1,0,0,.28.28,0,0,1,0,.16.1.1,0,0,0,0-.06m0-4.67v0s0,0,0,0Zm0,4.45v0h0a0,0,0,0,0,0,0m0-5A.44.44,0,0,1,45,28l0,0c0-.1,0-.16-.06-.16Zm0,.22v0Zm0,1.52h0v0Zm0,2.72a.45.45,0,0,1,.06.19s0,0,0-.06,0-.13-.06-.16a0,0,0,0,1,0,0m0,.16v0ZM45,34a0,0,0,0,1,0,0v.06s0,0,0,0m0-5.65h0Zm0,4.45h0ZM45,34v0Zm.09-5.15a0,0,0,0,0,0,0c-.06.09,0,.13,0,.22v-.25Zm0,4.42a0,0,0,0,0,0,0c-.06.1,0,.16,0,.22v-.25Zm0-4.55s0,0,0-.06v0a.19.19,0,0,0,0,.13Zm0,0v0Zm0,.88h0v0Zm0,3.16v0Zm0,.28v0a.19.19,0,0,0,0,.13.11.11,0,0,0,0-.09m0,1a0,0,0,0,1,0,0,0,0,0,0,1,0,0v.06Zm0-5.65a0,0,0,0,1,0,0s0,0,0,0Zm0,4.42h0l0,0v0Zm0-3.95.09-.19s0-.06,0-.1,0,.13-.06.19Zm.06.54a.12.12,0,0,0,0-.1s0,.06,0,.06,0,0,0,.06Zm-.06,3.88.09-.19a.32.32,0,0,1,0-.09c0,.06,0,.16-.06.19Zm.06.54a.1.1,0,0,0,0-.06.1.1,0,0,1,0,.06,0,0,0,0,1,0,0s0,0,0,0m0-6v0s0,0,0,.06a0,0,0,0,0,0,0m0,.44v0h0v0a0,0,0,0,1,0,0Zm0,.19s0,0,0,0v0Zm0,3.82v-.06a.12.12,0,0,0,0,.09,0,0,0,0,1,0,0m0,.31v0Zm0,.13v0l0,0Zm0,.16a0,0,0,0,0,0,0v0Zm.1.38v0Zm.06-3.51v0Zm0,4.42v0ZM45.49,28v-.09h0c0,.06,0,.09,0,.13Zm0,.73,0,0a.11.11,0,0,1,0-.06,0,0,0,0,1,0,0s0,0,0,.06m0,3.69v-.1l0,0s0,.06,0,.13Zm0,.73a0,0,0,0,0,0,0l0,0h0a.1.1,0,0,1,0,.06m.06-4.11s0,0,0,0,.06.06.1.06-.06-.06-.06-.1m0,4.45,0,0s.06,0,.1.06-.06-.06-.06-.1m0-4.74v0h0Zm0,4.45v0a0,0,0,0,0,0,0v0h0Zm0-4.8v0l0,0a.1.1,0,0,0,0,.06Zm0,1.26v0Zm0,3.16a0,0,0,0,0,0,0l0,0Zm0-.22v0Zm.13-4s0,0-.06,0a.46.46,0,0,0,0,.41c.1.1.06-.13.1-.19s0-.19,0-.25m0,4.42s0,0-.06,0a.46.46,0,0,0,0,.41c.1.1.06-.13.1-.19s0-.16,0-.25M45.64,28v0Zm.06.09v0a0,0,0,0,0,0,0l0,0s0,0,.06,0m0,4.45v0s0,0,0-.06a0,0,0,0,1,0,0l.06.06M45.83,28s0,0,0-.06v.16s-.06,0-.09.06.06.1.13.13.06,0,.06-.06,0,0-.06,0a.19.19,0,0,0,0-.13.12.12,0,0,0,0-.1m0,4.42,0,0v.16s-.06,0-.09,0a.32.32,0,0,0,.13.16l.06-.06c0-.16,0,0-.06,0a.12.12,0,0,0,0-.1.19.19,0,0,0,0-.13M46,29a.19.19,0,0,0,0-.13,1.09,1.09,0,0,1-.16.25c.06,0,.16,0,.19-.13m0,4.42a.31.31,0,0,0,0-.13v0a.7.7,0,0,1-.16.25c.06,0,.16,0,.19-.13m-.09-4.61a0,0,0,0,1,0,0h0a.12.12,0,0,0,0,.1s0-.06,0-.06m0,4.42a0,0,0,0,1,0,0l0,0a.1.1,0,0,0,0,.06s0,0,0-.06m0-3.85v0Zm0,4.42v0ZM46.09,28s0,0,0,0-.1-.16-.16-.1,0,.16.06.19.1.16.19.16.13-.16.16-.13.06-.1.1-.1a.33.33,0,0,0,0-.09.25.25,0,0,0-.13-.06s0,.06,0,.09a0,0,0,0,1,0,0c-.13.13,0-.25-.13-.19a.11.11,0,0,1,0-.06v0l0,0c.06.09,0,.16,0,.22m0,4.42h0c-.06-.06-.1-.19-.16-.1s0,.13.06.16a.29.29,0,0,0,.19.19s.13-.16.16-.16.06-.06.1-.1a.33.33,0,0,0,0-.1s-.09,0-.13-.06,0,.06,0,.09,0,0,0,0,0-.25-.13-.19l0,0a0,0,0,0,0,0,0c.06.13,0,.16,0,.22m-.19-3.88v0a.07.07,0,0,0,.06-.06s0,0-.06,0m0,4.45A.11.11,0,0,0,46,33a.1.1,0,0,0-.06,0m.1-3.63a0,0,0,0,0,0,0v0Zm0,4.45v0l0,0v0a0,0,0,0,0,0,0M46.09,29c0-.09,0-.13-.06-.16s-.06.19,0,.25v0s0-.06,0-.09m0,4.42c0-.1,0-.13-.06-.16s-.06.22,0,.28v0s0-.06,0-.13M46,28.22v0Zm0,.38v0l0,0a.33.33,0,0,0,0,.1c.06,0,.09,0,.09-.1s-.06,0-.09,0Zm0,4v0Zm0,.41v0s0,0,0,.06a.11.11,0,0,0,0,.06c.06,0,.09,0,.09-.09a.31.31,0,0,0-.09,0Zm.19-4.2h-.13l.13.13s.06,0,.09,0,0-.06-.06-.06,0,0,0,0m0,4.45h-.13c.06,0,.09.1.13.13s.06,0,.09,0,0-.06-.06-.1Zm0-4.93a0,0,0,0,0,0,0,0,0,0,0,0,0,0,0,0,0,1,0,0,.06m0,4.45,0,0s0-.06,0-.06a.11.11,0,0,0,0,.06Zm0-3.76h0Zm0,4.42h0s0,0,0,0Zm0-4.64h0Zm0,4.45h0Zm0-4.74v-.1a0,0,0,0,1,0,0,.1.1,0,0,1,0,.06m0,.22h0Zm0,4.23v-.09h0a.12.12,0,0,1,0,.09m0,.22,0,0h0Zm.09-4.08-.06-.06c0,.06,0,.1.06.13a0,0,0,0,0,0-.06m0,4.46s0-.06-.06-.06,0,.06.06.13a0,0,0,0,0,0-.06m0-.51v0Zm0-4.45a.68.68,0,0,1,.16.09v0c0-.13-.06-.22-.16-.09m0,4.42a.32.32,0,0,1,.16.13c0-.13-.06-.25-.16-.13m.06-5.15a0,0,0,0,0,0,0s0,0,0,.06Zm0,1h0a.11.11,0,0,0,0-.06v.06Zm0,3.44,0,0v0a0,0,0,0,0,0,0Zm0,1h0s0,0,0-.06ZM46.46,28c0,.13.06,0,.1.06a0,0,0,0,0,0,0,.43.43,0,0,1-.1-.13c0,.06-.06.09,0,.09m0,4.42c0,.16.06,0,.1.1a0,0,0,0,1,0,0,.44.44,0,0,0-.1-.13s-.06.06,0,.06m.16-4.67,0,0v0a.1.1,0,0,0,0,.06Zm.16.69v-.09a.12.12,0,0,0,.09,0c.16-.06.22.25.35.22s0,0,.06,0,0-.13,0-.19h0v.16h0c-.06-.35-.28-.16-.41-.32h-.06s-.06,0-.13.06.06,0,.1.06l.09.09m-.19.38v0Zm0,.5h0Zm0,2.88s0,0,0,0,0,0,0,.06Zm.16.66v-.06s.06,0,.09,0,.22.28.35.25,0,0,.06,0,0-.16,0-.22h0V33a0,0,0,0,1,0,0c-.06-.35-.28-.13-.41-.28s0,0-.06,0-.06,0-.13.06.06.06.1.06Zm-.19.38v0Zm0,.54,0,0h0Zm.1-5.91a.11.11,0,0,0,0,.06h0v-.13c-.06,0-.06.06-.06.06m0,.16a0,0,0,0,1,0,0v0h0s0,0,0,.06,0,0,0-.06m0,.32h0Zm0,3.95s0,.06,0,.1a0,0,0,0,0,0,0v-.13Zm0,.19s0,0,0-.06v0l0,0,0,0Zm0,.28h0Zm0-4.23v0Zm.06-.25,0,0a0,0,0,0,1,0,0Zm0,4.45h0v.06s0,0,0-.06m.06-4.83v0Zm.06.22s0,0,0-.06l0,0s0,.06,0,.09,0,0,0-.06m0,.7h0Zm0,3.51v0Zm.06.25s0-.06,0-.1l0,0s0,.06,0,.13a.1.1,0,0,0,0-.06m0,.66h0Zm.06-4.36c0-.1.06-.16,0-.22s0,.09-.06.16l0,0Zm0,4.2c0,.06,0,.09-.06.16a.11.11,0,0,1,0,.06c0-.06.06-.13,0-.22m0-5.18v0Zm0,1v0Zm0,3.44v0ZM47,34.06v0Zm.13-5.84v0s0,0,0,0,0,0,0,0m0,4.42v.06a0,0,0,0,0,0,0s0,0,0,0m.13-4.36c.06,0,.1-.06.13-.1s0-.1-.06-.13-.06.16-.16.09a.51.51,0,0,1,.1.13m0,4.45c.06,0,.1-.1.13-.13s0-.1-.06-.13c0,.13-.06.16-.16.13a.54.54,0,0,1,.1.13m0-4.8s0,0,.06,0h0s0-.09,0,0m0,.85a0,0,0,0,1,0,0h0Zm.06.22v-.06s0,0,0,.06h-.06v.06s0-.06.06-.06Zm-.09,3.38h0s0-.09,0,0m0,.85h0Zm.09.19v0a0,0,0,0,0,0,0,.1.1,0,0,1-.06,0v0s0,0,.06-.06Zm0-5.09v0Zm0,.19v0a0,0,0,0,0,0,0,0,0,0,0,0,0,0Zm0,4.3v0Zm0,.13h0s0,0,0,0Zm.13-4.87h0v0h0Zm0,4.45h0v0h0Zm.13-4.49a0,0,0,0,0,0,0h-.06Zm0,4.45,0,0a0,0,0,0,1,0,0l0,0s0,0,0,0m0-4.8h0Zm0,4.42h0ZM47.76,28s0,0,0,0,0,0,0,0,0,0,0,.06a0,0,0,0,0,0,0m0,4.42a0,0,0,0,0,0,0l0,0s0,0,0,.06,0,0,0-.06m0-3.25h0v0Zm0,4.42h0v0ZM48,28h0Zm0,.47v0Zm0,3.95,0,0Zm0-4.64v0ZM48.14,29s0,0,0-.06l0,0s0,0,.06.06Zm-.06,3.19v0Zm.06,1.23,0,0s0,0,0,0a.24.24,0,0,1,.06.09Zm0-5.59a0,0,0,0,0,0,0v.06Zm0,.73a0,0,0,0,0,0,0v0Zm0,3.69h0v0s0,0,0,0m0,.76h0v0Zm.06-4.49h0a0,0,0,0,0,0,0Zm0,.41,0,0V29s0,0,0,0m0,4s0,0,0,0h0Zm0,.44s0,0,0,0v.06Zm0-4.23h0v0Zm0,4.42h0v0a0,0,0,0,1,0,0v0Zm.16-4.39v0H48.3a0,0,0,0,1,0,0c.06,0,.1,0,.13,0s0,0,0,.06,0,0,0,0m-.13,3.09v0Zm.13,1.36v0s-.06,0-.09,0a.09.09,0,0,1,0,.06.25.25,0,0,1,.13,0,0,0,0,0,1,0,0Zm0-6s0,0,0-.06v0s0,0,0,.06Zm0,4.42a0,0,0,0,0,0,0v0l0,0Zm.1-4.07V28l0,0v.09a.1.1,0,0,0,0-.06m0,4.42v-.06l0,0v.09s0,0,0-.06m.06-4.23h0v0h0Zm0,.22a0,0,0,0,0,0,0s0,0,0,0m0,4.23v0s0,0,0,0Zm0,.22v0h0Zm0,1v0Zm.09-5.75a0,0,0,0,0,0,0s0-.06-.06-.1l0,0s.06.06.06.09m0,4.42s0,0,0,0,0-.06-.06-.09,0,0,0,0a.36.36,0,0,0,.06.09m.13-4.07v0h0l0,0V28.5Zm0,4.45s0,0,0,.06V33Zm.06-5.05,0,0s0,.06,0,.06a0,0,0,0,0,0,0,.11.11,0,0,0,0-.06m0,4.42a.11.11,0,0,0,0,.06.1.1,0,0,0,0,.06.08.08,0,0,0,0-.13m0-2.75h0Zm0,4.42h0v0h0ZM49,29.1s0,0-.06,0l0,0a.11.11,0,0,1,.06,0Zm0,4.42s0,0-.06,0a0,0,0,0,1,0,0s.06,0,.06.06,0,0,0-.06M49,27.78v0Zm0,.41h0s0,0,0,0Zm.06.51s0-.06-.06-.06a.11.11,0,0,0,0,.06l0,0s0,0,.06,0m-.06.88h0a0,0,0,0,0,0,0Zm0,2.62v0Zm0,.41h0l0,0Zm.06.51s0,0-.06,0l0,0s0,0,0,.06l.06-.06M49,34h0v0h0Zm0-5.65v0Zm0-.13v0Zm0,4.42v0Zm.06-4.74h0s0,0,0,.06h.06Zm0,4.42,0,0,0,0h.06Zm.13-3.89a0,0,0,0,0,0,0s0,0,0-.06l-.06,0,.06.06m0,4.42h0a.12.12,0,0,0,0-.09s0,0-.06,0l.06.06m.06-3.92v0Zm0,4.42v0Zm.19-4.58h0v0s-.06,0-.09,0a.1.1,0,0,0,0,.06h.09s0-.06,0-.1a0,0,0,0,1,0,0m0,4.42h0v.06h-.09s0,.06,0,.06a.12.12,0,0,1,.09,0s0-.06,0-.1,0,0,0-.06m-.13.25v0Zm.13-5.24,0,0,0,0a0,0,0,0,1,0,0s0,0,0,0m-.06.35h0s0,0,0,0Zm.06,4.11s0,0,0-.06a0,0,0,0,1,0,0s0,0,0,.06Zm-.06.31v0l0,0,0,0Z" transform="translate(0)"/><path class="cls-3" d="M52.44,20.64c.19-.06.41.16.6.31s.13.22.19.32a3.86,3.86,0,0,0,.35.38,0,0,0,0,0,0,0c.22.44.47.89.69,1.29a3.32,3.32,0,0,0,.19.51c.06.16.16.32.22.5l.09.22c.09.16.16.32.22.44.13.32.28.6.41.92s.22.5.32.76a.65.65,0,0,0,.13.19c.19.44.38.85.6,1.39A20.8,20.8,0,0,1,57.33,30a.14.14,0,0,0,.09,0c.06-.35.16-.69.25-1a5,5,0,0,1,.16-.66c.16-.51.28-1,.44-1.52a8,8,0,0,0,.25-.82c.1-.31.19-.6.25-.88.16-.6.35-1.17.47-1.77a3.39,3.39,0,0,0,.13-.79,1.79,1.79,0,0,1,.25-.79c.13-.29.22-.6.32-.89a1.69,1.69,0,0,1,.32-.63l.22.1c.06-.06.1-.13.16-.19h0c.19.06.35.16.5.22s.19.09.28.16a.88.88,0,0,1,.44.5c.06.13.19.25.25.38a2.17,2.17,0,0,1,.16.92,1.83,1.83,0,0,0,.1.35l.09,1.14c0,.13,0,.29,0,.41,0,.47,0,.92,0,1.39s.06.82.09,1.26v1a2.17,2.17,0,0,0,.06.44v.19a2.08,2.08,0,0,1,.1.76v1.86a5.28,5.28,0,0,0,0,.69v.54c0,.06,0,.13,0,.19v1.23H63V35a2.44,2.44,0,0,1,0,.47c0,.22,0,.44,0,.69v1.64c0,.25,0,.5,0,.73s0,.28,0,.41c0,.47.09.92.13,1.36s.06.76.06,1.14v.92a3.44,3.44,0,0,1-.06.57,6.32,6.32,0,0,1-.16.63.32.32,0,0,1-.32.19l-.44-.06c-.22,0-.32-.19-.38-.35s-.19-.35-.28-.51a1.39,1.39,0,0,1-.35-.79c0-.47,0-.92-.06-1.36s-.09-.73-.13-1.07,0-.57,0-.88-.06-.54-.06-.82.06-.73.06-1.11-.06-.57-.06-.88a3.86,3.86,0,0,0,0-.6V34.19c0-.44,0-.92,0-1.36a11.75,11.75,0,0,0-.1-1.48c0-.19-.06-.41-.06-.63v-.6c0-.19,0-.41,0-.63s0-.41,0-.6,0-.57,0-.82,0-.44,0-.66V25.47c0-.44,0-.85.06-1.26a.23.23,0,0,0-.06-.19s0,0,0,.06c-.1.28-.16.57-.25.88a5.06,5.06,0,0,1-.13.57l-.19.76c0,.1,0,.19,0,.28-.06.25-.16.51-.19.73s-.09.51-.16.73v.09c-.06.25-.09.51-.16.76a2,2,0,0,1-.13.41,9.37,9.37,0,0,1-.22,1l-.19.47a4.38,4.38,0,0,0-.13.63,5.76,5.76,0,0,1-.13.73l-.1.28-.19.57a5.61,5.61,0,0,1-.22.66,1.05,1.05,0,0,1-.28.44c-.16.16-.25.41-.51.38a.59.59,0,0,1-.38-.16,1.66,1.66,0,0,1-.38-.44c-.19-.35-.38-.69-.57-1a5.48,5.48,0,0,0-.41-.88,11.49,11.49,0,0,1-.66-1.42c-.16-.35-.35-.69-.51-1.07s-.25-.73-.38-1.11-.28-.66-.41-1-.28-.85-.41-1.26c-.06-.19-.16-.41-.22-.6s-.16-.38-.22-.57v-.13c-.09-.19-.16-.41-.25-.6h-.06v.25c0,.22.09.41.13.6,0,.51,0,1,.06,1.51,0,.19,0,.41,0,.6a7.65,7.65,0,0,1,.06.82c0,.19,0,.38,0,.54s0,.41,0,.63a.1.1,0,0,1,0,.06h0a1.67,1.67,0,0,0-.06.35,1.2,1.2,0,0,0,.06.28l0,0c.06.32.09.63.16.92a0,0,0,0,1,0,0,4.76,4.76,0,0,1,0,.95c0,.38,0,.76,0,1.14h.06a.12.12,0,0,0,0,.1h0c0,.69.09,1.39.13,2.08a1.83,1.83,0,0,1,.06.73,2.44,2.44,0,0,0,0,.47c0,.38.1.79.13,1.17s0,.63,0,.95,0,.47,0,.73a4.52,4.52,0,0,1,0,.92v.82a2.36,2.36,0,0,0,0,.47c.06.41,0,.85,0,1.26,0,.16,0,.22-.16.28s-.06,0-.09.06c.16.1.28.16.22.38a4.63,4.63,0,0,0-.6.38l-.32,0-.32.1s0-.1-.06-.13-.09-.16-.16-.16a.52.52,0,0,1-.32-.47c0-.32,0-.63,0-.95,0-.06,0-.16,0-.25v-.44l-.1-.95a14.38,14.38,0,0,0,0-1.64,10.22,10.22,0,0,1,0-1.42,1.82,1.82,0,0,0-.06-.6,7.16,7.16,0,0,1-.1-1.42c0-.6,0-1.2,0-1.83,0-.44-.06-.89-.06-1.33s0-1,0-1.52.06-.79.06-1.2-.06-.73-.06-1.07c0-.57,0-1.14-.06-1.71,0-.16,0-.35,0-.54s0-.5,0-.73,0-.69-.06-1a5.25,5.25,0,0,0,.06-.69c0-.38,0-.73,0-1.11a5.5,5.5,0,0,0,0-.73c0-.32,0-.63-.06-.95a3.2,3.2,0,0,1,.06-.54c.38.06.73.1,1.2.19m.63,2.62c0-.06,0-.13-.06-.19h0v.38h0v-.13l0,0s.06,0,.1,0" transform="translate(0)"/><path class="cls-3" d="M74.55,41.55c0,.22-.06.28-.38.38a.33.33,0,0,0-.22.41c-.06.1-.13.16-.22.28S73.35,43,73,43l-.92.25a1,1,0,0,1-.32,0,17.46,17.46,0,0,1-1.86-.35,5,5,0,0,1-.92-.47,4.09,4.09,0,0,1-.6-.44,8.41,8.41,0,0,1-.82-.66,16.32,16.32,0,0,1-1.36-1.58A5.32,5.32,0,0,1,65.29,38c-.19-.7-.38-1.39-.51-2.09a17.5,17.5,0,0,1-.22-1.8,7.42,7.42,0,0,1,0-1.2,10.08,10.08,0,0,1,.32-2c.1-.41.16-.82.28-1.23.19-.66.38-1.33.6-2s.51-1.14.76-1.67a10.91,10.91,0,0,1,.51-1.07c0-.06.09-.13.09-.16.13-.25.22-.47.32-.66.29-.41.54-.82.82-1.23A5.89,5.89,0,0,1,70,21.49a5.12,5.12,0,0,1,.95-.41,5,5,0,0,1,.54-.16,6.67,6.67,0,0,1,.73-.1,1.87,1.87,0,0,1,1.07.41,1.41,1.41,0,0,1,.47.38c.06.06,0,.22,0,.32s-.13,0-.19.06a.67.67,0,0,0-.19.13,1.22,1.22,0,0,1-.51.22,1.69,1.69,0,0,0-.63.16,8.49,8.49,0,0,0-1.2.57,5.06,5.06,0,0,0-.76.66,5.42,5.42,0,0,1-.38.44,4.09,4.09,0,0,0-.73,1c0,.06-.06.1-.1.16-.16.35-.32.66-.47,1s-.25.63-.41.95a6.87,6.87,0,0,0-.5,1.61l-.47,1.71c-.06.25-.13.47-.19.73s-.09.44-.13.66c0,0,0,0,0,0a2.69,2.69,0,0,1-.13.88c0,.25-.09.47-.13.63,0,.54,0,1,0,1.52a3.46,3.46,0,0,0,.16.79c0,.09,0,.16.06.25.06.35.13.66.19,1s.06.38.13.63a1.3,1.3,0,0,1,.28.63,3.83,3.83,0,0,0,.35.73,1,1,0,0,1,.13.25c.22.25.44.54.66.79,0,0,0,0,0,0s0,.1,0,.16,0,0,0-.06c.25.25.54.5.79.79a2.1,2.1,0,0,0,1.17.73,1.78,1.78,0,0,0,.92,0,11,11,0,0,0,1.07-.51,5.2,5.2,0,0,1,.57-.31,1.69,1.69,0,0,1,.57,0c.13,0,.25,0,.38.06s.1,0,.19.06c-.13.28,0,.41.19.54" transform="translate(0)"/></g><text class="cls-4" transform="translate(75.48 24.4)">2</text><g class="cls-2"><rect class="cls-5" x="1.5" y="1.5" width="102.78" height="75.84" rx="16.21" ry="16.21"/><line class="cls-5" x1="1.5" y1="60.19" x2="104.29" y2="60.19"/><path class="cls-3" d="M55.57,68.31a2.68,2.68,0,1,1-2.68-2.68,2.68,2.68,0,0,1,2.68,2.68" transform="translate(0)"/><rect class="cls-5" x="41.37" y="77.34" width="23.04" height="10.39"/><line class="cls-5" x1="33" y1="88.29" x2="72.78" y2="88.29"/></g></g></g></svg>