<svg width="77px" height="109px" xmlns="http://www.w3.org/2000/svg" xmlns:xlink="http://www.w3.org/1999/xlink" viewBox="0 0 73.78 103.16"><defs><style>.cls-1,.cls-3,.cls-4,.cls-5{fill:none;}.cls-2{clip-path:url(#clip-path);}.cls-3,.cls-4,.cls-5{stroke:#fe7302;stroke-width:3px;}.cls-3,.cls-5{stroke-linecap:round;}.cls-3,.cls-4{stroke-miterlimit:10;}.cls-5{stroke-linejoin:round;}</style><clipPath id="clip-path" transform="translate(0 0)"><rect class="cls-1" width="73.78" height="103.15"/></clipPath></defs><title>approach2</title><g id="Слой_2" data-name="Слой 2"><g id="Слой_1-2" data-name="Слой 1"><g class="cls-2"><path class="cls-3" d="M56.62,101.56l-31.52-.27,0-4.82a3.9,3.9,0,0,1,3.93-3.86l23.72.2a3.9,3.9,0,0,1,3.86,3.93Z" transform="translate(0 0)"/><circle class="cls-4" cx="40.78" cy="39.44" r="31.49" transform="translate(-8.48 11.3) rotate(-14.31)"/><path class="cls-5" d="M48.56,70,33,8.93,31,1.5A39.18,39.18,0,1,0,50.38,77.43L48.48,70" transform="translate(0 0)"/><path class="cls-4" d="M15.64,20.5a31.35,31.35,0,0,0,20.78,1.84A31.35,31.35,0,0,0,53.78,10.77,31.46,31.46,0,0,0,15.64,20.5Z" transform="translate(0 0)"/><path class="cls-4" d="M27.78,68.12a31.46,31.46,0,0,0,38.14-9.73,31.46,31.46,0,0,0-38.14,9.73Z" transform="translate(0 0)"/><ellipse class="cls-4" cx="40.78" cy="39.44" rx="15.74" ry="31.49" transform="translate(-8.48 11.3) rotate(-14.31)"/><line class="cls-4" x1="10.27" y1="47.23" x2="71.29" y2="31.66"/><line class="cls-4" x1="40.78" y1="78.66" x2="40.78" y2="92.6"/><line class="cls-3" x1="21.22" y1="101.66" x2="61.48" y2="101.66"/></g></g></g></svg>